<svg width="45" height="44" viewBox="0 0 45 44" fill="none" xmlns="http://www.w3.org/2000/svg">
<g clip-path="url(#clip0_79_745)">
<path d="M37.6805 7.57886C34.8907 6.29877 31.8991 5.35566 28.7711 4.8155C28.7141 4.80507 28.6572 4.83113 28.6279 4.88323C28.2431 5.56755 27.8169 6.46029 27.5185 7.16199C24.1542 6.65831 20.8071 6.65831 17.5117 7.16199C17.2132 6.4447 16.7716 5.56755 16.3851 4.88323C16.3558 4.83286 16.2989 4.80681 16.2419 4.8155C13.1156 5.35393 10.124 6.29704 7.33244 7.57886C7.30827 7.58928 7.28756 7.60666 7.27381 7.62923C1.59926 16.1069 0.044765 24.3762 0.807349 32.5429C0.8108 32.5829 0.833228 32.6211 0.864284 32.6454C4.60819 35.3948 8.2348 37.064 11.7941 38.1703C11.851 38.1877 11.9114 38.1669 11.9476 38.12C12.7896 36.9702 13.5401 35.7579 14.1836 34.483C14.2216 34.4083 14.1853 34.3197 14.1077 34.2902C12.9173 33.8386 11.7837 33.288 10.6933 32.6628C10.6071 32.6124 10.6002 32.489 10.6795 32.43C10.909 32.258 11.1385 32.0791 11.3576 31.8985C11.3972 31.8655 11.4525 31.8586 11.4991 31.8794C18.6625 35.15 26.4177 35.15 33.4966 31.8794C33.5432 31.8568 33.5985 31.8638 33.6398 31.8968C33.859 32.0774 34.0885 32.258 34.3197 32.43C34.399 32.489 34.3938 32.6124 34.3076 32.6628C33.2172 33.3002 32.0836 33.8386 30.8915 34.2885C30.8138 34.318 30.7793 34.4083 30.8173 34.483C31.4746 35.7561 32.2251 36.9684 33.0515 38.1183C33.0861 38.1669 33.1481 38.1877 33.2051 38.1703C36.7816 37.064 40.4082 35.3948 44.1521 32.6454C44.1849 32.6211 44.2056 32.5846 44.2091 32.5447C45.1217 23.103 42.6804 14.9015 37.7374 7.63095C37.7254 7.60666 37.7047 7.58928 37.6805 7.57886ZM15.2533 27.5702C13.0967 27.5702 11.3196 25.5902 11.3196 23.1586C11.3196 20.727 13.0622 18.747 15.2533 18.747C17.4617 18.747 19.2215 20.7443 19.187 23.1586C19.187 25.5902 17.4444 27.5702 15.2533 27.5702ZM29.7976 27.5702C27.641 27.5702 25.8639 25.5902 25.8639 23.1586C25.8639 20.727 27.6065 18.747 29.7976 18.747C32.006 18.747 33.7658 20.7443 33.7313 23.1586C33.7313 25.5902 32.006 27.5702 29.7976 27.5702Z" fill="#5865F2"/>
</g>
<defs>
<clipPath id="clip0_79_745">
<rect width="43.7711" height="43.7711" fill="white" transform="translate(0.626465)"/>
</clipPath>
</defs>
</svg>
