<svg width="45" height="44" viewBox="0 0 45 44" fill="none" xmlns="http://www.w3.org/2000/svg">
<path d="M22.1992 43.0872C33.9085 43.0872 43.4008 33.5949 43.4008 21.8856C43.4008 10.1762 33.9085 0.68396 22.1992 0.68396C10.4898 0.68396 0.997559 10.1762 0.997559 21.8856C0.997559 33.5949 10.4898 43.0872 22.1992 43.0872Z" fill="#EA4C89"/>
<path fill-rule="evenodd" clip-rule="evenodd" d="M22.199 0C10.1169 0 0.313477 9.8034 0.313477 21.8855C0.313477 33.9677 10.1169 43.7711 22.199 43.7711C34.2574 43.7711 44.0846 33.9677 44.0846 21.8855C44.0846 9.8034 34.2574 0 22.199 0ZM36.6548 10.0882C39.2659 13.269 40.8326 17.328 40.8801 21.7193C40.2629 21.6008 34.0912 20.3426 27.8722 21.126C27.7298 20.8174 27.611 20.485 27.4686 20.1528C27.0888 19.2508 26.6616 18.325 26.2343 17.4467C33.118 14.6458 36.2513 10.6105 36.6548 10.0882ZM22.199 3.22824C26.9464 3.22824 31.2903 5.00852 34.5898 7.92817C34.2574 8.40291 31.4327 12.1771 24.7863 14.6695C21.7242 9.0438 18.3299 4.43883 17.8077 3.72671C19.2081 3.39439 20.6799 3.22824 22.199 3.22824ZM14.2472 4.98477C14.7456 5.64941 18.0688 10.2781 21.1783 15.7851C12.4431 18.1114 4.72857 18.0639 3.89777 18.0639C5.10835 12.272 9.02496 7.45342 14.2472 4.98477ZM3.49424 21.9093C3.49424 21.7193 3.49424 21.5295 3.49424 21.3396C4.3013 21.3633 13.3688 21.482 22.6975 18.6811C23.2435 19.7254 23.7419 20.7936 24.2167 21.8617C23.9793 21.933 23.7181 22.0043 23.4808 22.0754C13.8436 25.1849 8.71639 33.6828 8.28912 34.3949C5.32198 31.0955 3.49424 26.7042 3.49424 21.9093ZM22.199 40.5903C17.8788 40.5903 13.8911 39.1186 10.734 36.6499C11.0663 35.9616 14.8642 28.6506 25.4035 24.9714C25.4509 24.9476 25.4747 24.9476 25.5222 24.9239C28.1569 31.7364 29.2252 37.457 29.51 39.0948C27.255 40.0681 24.7863 40.5903 22.199 40.5903ZM32.6195 37.3858C32.4297 36.2464 31.4327 30.7869 28.9878 24.0693C34.8509 23.1436 39.978 24.6628 40.619 24.8765C39.812 30.0748 36.821 34.5611 32.6195 37.3858Z" fill="#C32361"/>
</svg>
