<svg width="45" height="44" viewBox="0 0 45 44" fill="none" xmlns="http://www.w3.org/2000/svg">
<g clip-path="url(#clip0_79_763)">
<path d="M15.3617 43.7711C19.3887 43.7711 22.657 40.5028 22.657 36.4759V29.1807H15.3617C11.3347 29.1807 8.06641 32.449 8.06641 36.4759C8.06641 40.5028 11.3347 43.7711 15.3617 43.7711Z" fill="#0ACF83"/>
<path d="M8.06641 21.8854C8.06641 17.8585 11.3347 14.5902 15.3617 14.5902H22.657V29.1805H15.3617C11.3347 29.1807 8.06641 25.9124 8.06641 21.8854Z" fill="#A259FF"/>
<path d="M8.06641 7.29524C8.06641 3.2683 11.3347 0 15.3617 0H22.657V14.5903H15.3617C11.3347 14.5903 8.06641 11.3222 8.06641 7.29524Z" fill="#F24E1E"/>
<path d="M22.6562 0H29.9515C33.9785 0 37.2468 3.2683 37.2468 7.29524C37.2468 11.3222 33.9785 14.5903 29.9515 14.5903H22.6562V0Z" fill="#FF7262"/>
<path d="M37.2468 21.8855C37.2468 25.9124 33.9785 29.1807 29.9515 29.1807C25.9246 29.1807 22.6562 25.9124 22.6562 21.8855C22.6562 17.8585 25.9246 14.5902 29.9515 14.5902C33.9785 14.5902 37.2468 17.8585 37.2468 21.8855Z" fill="#1ABCFE"/>
</g>
<defs>
<clipPath id="clip0_79_763">
<rect width="43.7711" height="43.7711" fill="white" transform="translate(0.770996)"/>
</clipPath>
</defs>
</svg>
