<svg width="45" height="44" viewBox="0 0 45 44" fill="none" xmlns="http://www.w3.org/2000/svg">
<g clip-path="url(#clip0_79_783)">
<path fill-rule="evenodd" clip-rule="evenodd" d="M22.5965 0.911865C17.401 0.914561 12.3757 2.75473 8.41946 6.10334C4.46317 9.45195 1.83379 14.0906 1.00149 19.1899C0.169184 24.2892 1.18821 29.5167 3.87639 33.9375C6.56456 38.3583 10.7466 41.6842 15.6746 43.3205C16.7618 43.5223 17.1714 42.8485 17.1714 42.2755C17.1714 41.7026 17.1496 40.0414 17.1424 38.2253C11.054 39.5405 9.76745 35.6561 9.76745 35.6561C8.77447 33.1337 7.33935 32.4706 7.33935 32.4706C5.35338 31.1229 7.48794 31.1482 7.48794 31.1482C9.68773 31.3031 10.8438 33.3931 10.8438 33.3931C12.7935 36.7191 15.9645 35.7569 17.2112 35.1948C17.4069 33.7859 17.9759 32.8274 18.6028 32.2832C13.7394 31.7355 8.6295 29.869 8.6295 21.5306C8.59936 19.3681 9.40641 17.2769 10.8837 15.6895C10.659 15.1418 9.90878 12.9293 11.0975 9.92402C11.0975 9.92402 12.9349 9.34027 17.117 12.1545C20.7042 11.1791 24.4889 11.1791 28.0761 12.1545C32.2546 9.34027 34.0883 9.92402 34.0883 9.92402C35.2806 12.9221 34.5305 15.1346 34.3058 15.6895C35.7877 17.2771 36.5965 19.372 36.5636 21.5378C36.5636 29.8942 31.4428 31.7355 26.5721 32.2724C27.3549 32.9499 28.0543 34.2723 28.0543 36.3047C28.0543 39.2162 28.029 41.5585 28.029 42.2755C28.029 42.8557 28.424 43.5331 29.5329 43.3205C34.4616 41.684 38.644 38.3575 41.3321 33.9359C44.0202 29.5144 45.0387 24.2862 44.2055 19.1864C43.3722 14.0866 40.7416 9.44787 36.784 6.09984C32.8264 2.75181 27.8 0.912852 22.6038 0.911865H22.5965Z" fill="white"/>
<path d="M8.99928 32.1572C8.95216 32.2653 8.77821 32.2977 8.63687 32.2221C8.49554 32.1464 8.39045 32.0059 8.44118 31.8942C8.49192 31.7825 8.66225 31.7536 8.80359 31.8293C8.94492 31.905 9.05364 32.0491 8.99928 32.1572Z" fill="white"/>
<path d="M9.88708 33.1408C9.81203 33.1784 9.72616 33.1889 9.64419 33.1705C9.56221 33.1521 9.48922 33.106 9.4377 33.0399C9.29637 32.8886 9.26736 32.6796 9.37608 32.5859C9.4848 32.4922 9.68051 32.5355 9.82185 32.6868C9.96319 32.8382 9.9958 33.0472 9.88708 33.1408Z" fill="white"/>
<path d="M10.7496 34.3912C10.6155 34.4849 10.3872 34.3912 10.2603 34.2038C10.2252 34.1702 10.1974 34.1299 10.1783 34.0853C10.1592 34.0407 10.1494 33.9928 10.1494 33.9444C10.1494 33.8959 10.1592 33.848 10.1783 33.8034C10.1974 33.7588 10.2252 33.7185 10.2603 33.6849C10.3944 33.5948 10.6227 33.6849 10.7496 33.8687C10.8764 34.0525 10.88 34.2975 10.7496 34.3912V34.3912Z" fill="white"/>
<path d="M11.9201 35.6021C11.8005 35.7355 11.5577 35.6994 11.3584 35.5192C11.1591 35.3391 11.1119 35.094 11.2315 34.9643C11.3511 34.8346 11.5939 34.8706 11.8005 35.0472C12.0071 35.2238 12.0469 35.4724 11.9201 35.6021V35.6021Z" fill="white"/>
<path d="M13.5618 36.3082C13.5074 36.4776 13.261 36.5533 13.0146 36.4812C12.7681 36.4091 12.605 36.2073 12.6522 36.0344C12.6993 35.8614 12.9493 35.7821 13.1994 35.8614C13.4494 35.9407 13.6089 36.1317 13.5618 36.3082Z" fill="white"/>
<path d="M15.3522 36.4308C15.3522 36.6074 15.1493 36.7587 14.8883 36.7623C14.6274 36.7659 14.4136 36.6218 14.4136 36.4452C14.4136 36.2687 14.6165 36.1173 14.8774 36.1137C15.1384 36.1101 15.3522 36.2506 15.3522 36.4308Z" fill="white"/>
<path d="M17.019 36.1534C17.0517 36.33 16.8705 36.5138 16.6095 36.557C16.3486 36.6002 16.1203 36.4957 16.0877 36.3228C16.055 36.1498 16.2435 35.9624 16.4972 35.9156C16.7509 35.8688 16.9864 35.9769 17.019 36.1534Z" fill="white"/>
</g>
<defs>
<clipPath id="clip0_79_783">
<rect width="43.7711" height="43.7711" fill="white" transform="translate(0.710938)"/>
</clipPath>
</defs>
</svg>
