<svg width="45" height="44" viewBox="0 0 45 44" fill="none" xmlns="http://www.w3.org/2000/svg">
<g clip-path="url(#clip0_79_753)">
<path d="M43.7418 22.3897C43.7418 20.902 43.6212 19.4062 43.3638 17.9426H22.7207V26.3703H34.5421C34.0515 29.0885 32.4753 31.4929 30.1674 33.0209V38.4892H37.22C41.3614 34.6774 43.7418 29.0482 43.7418 22.3897Z" fill="#4285F4"/>
<path d="M22.721 43.7726C28.6237 43.7726 33.6015 41.8345 37.2283 38.4892L30.1757 33.0208C28.2135 34.3557 25.6804 35.1117 22.7291 35.1117C17.0195 35.1117 12.1783 31.2597 10.4413 26.0808H3.16357V31.7181C6.87885 39.1084 14.4461 43.7726 22.721 43.7726V43.7726Z" fill="#34A853"/>
<path d="M10.4328 26.0808C9.516 23.3627 9.516 20.4194 10.4328 17.7013V12.0641H3.16304C0.0589349 18.2482 0.0589349 25.534 3.16304 31.718L10.4328 26.0808V26.0808Z" fill="#FBBC04"/>
<path d="M22.721 8.66241C25.8412 8.61416 28.8569 9.78825 31.1166 11.9434L37.365 5.69501C33.4085 1.97974 28.1572 -0.0628589 22.721 0.00147484C14.4461 0.00147484 6.87885 4.66567 3.16357 12.0641L10.4333 17.7013C12.1623 12.5144 17.0114 8.66241 22.721 8.66241V8.66241Z" fill="#EA4335"/>
</g>
<defs>
<clipPath id="clip0_79_753">
<rect width="43.7711" height="43.7711" fill="white" transform="translate(0.397461)"/>
</clipPath>
</defs>
</svg>
