<svg width="44" height="44" viewBox="0 0 44 44" fill="none" xmlns="http://www.w3.org/2000/svg">
<g clip-path="url(#clip0_79_748)">
<path d="M21.97 3.94111C27.8176 3.94111 28.51 3.96675 30.8097 4.06934C32.947 4.16338 34.1011 4.52244 34.8705 4.82166C35.8879 5.21491 36.6231 5.69366 37.3839 6.45453C38.1533 7.22394 38.6235 7.95061 39.0168 8.96794C39.316 9.73736 39.6751 10.9 39.7691 13.0287C39.8717 15.337 39.8974 16.0295 39.8974 21.8684C39.8974 27.716 39.8717 28.4085 39.7691 30.7082C39.6751 32.8454 39.316 33.9995 39.0168 34.7689C38.6235 35.7863 38.1448 36.5215 37.3839 37.2824C36.6145 38.0518 35.8879 38.522 34.8705 38.9152C34.1011 39.2144 32.9384 39.5735 30.8097 39.6675C28.5015 39.7701 27.809 39.7958 21.97 39.7958C16.1225 39.7958 15.43 39.7701 13.1303 39.6675C10.993 39.5735 9.83893 39.2144 9.06951 38.9152C8.05218 38.522 7.31696 38.0432 6.5561 37.2824C5.78668 36.513 5.31649 35.7863 4.92323 34.7689C4.62401 33.9995 4.26495 32.8369 4.17091 30.7082C4.06833 28.3999 4.04268 27.7074 4.04268 21.8684C4.04268 16.0209 4.06833 15.3284 4.17091 13.0287C4.26495 10.8915 4.62401 9.73736 4.92323 8.96794C5.31649 7.95061 5.79523 7.21539 6.5561 6.45453C7.32551 5.68511 8.05218 5.21491 9.06951 4.82166C9.83893 4.52244 11.0016 4.16338 13.1303 4.06934C15.43 3.96675 16.1225 3.94111 21.97 3.94111ZM21.97 0C16.0284 0 15.2847 0.0256471 12.9508 0.128236C10.6254 0.230824 9.02677 0.606982 7.64182 1.14557C6.19704 1.70981 4.97452 2.45357 3.76056 3.67609C2.53805 4.89005 1.79428 6.11256 1.23004 7.5488C0.691454 8.9423 0.315297 10.5324 0.212708 12.8578C0.11012 15.2002 0.0844727 15.944 0.0844727 21.8855C0.0844727 27.8271 0.11012 28.5709 0.212708 30.9048C0.315297 33.2301 0.691454 34.8288 1.23004 36.2137C1.79428 37.6585 2.53805 38.881 3.76056 40.095C4.97452 41.309 6.19704 42.0613 7.63328 42.617C9.02677 43.1556 10.6169 43.5317 12.9422 43.6343C15.2761 43.7369 16.0199 43.7625 21.9615 43.7625C27.903 43.7625 28.6468 43.7369 30.9807 43.6343C33.306 43.5317 34.9047 43.1556 36.2897 42.617C37.7259 42.0613 38.9484 41.309 40.1624 40.095C41.3763 38.881 42.1287 37.6585 42.6843 36.2223C43.2229 34.8288 43.5991 33.2387 43.7017 30.9133C43.8043 28.5794 43.8299 27.8357 43.8299 21.8941C43.8299 15.9525 43.8043 15.2087 43.7017 12.8749C43.5991 10.5495 43.2229 8.95084 42.6843 7.5659C42.1458 6.11256 41.402 4.89005 40.1795 3.67609C38.9655 2.46212 37.743 1.70981 36.3068 1.15412C34.9133 0.615531 33.3231 0.239373 30.9978 0.136785C28.6554 0.0256471 27.9116 0 21.97 0Z" fill="url(#paint0_linear_79_748)"/>
<path d="M21.97 10.6436C15.7634 10.6436 10.728 15.6789 10.728 21.8855C10.728 28.0921 15.7634 33.1275 21.97 33.1275C28.1766 33.1275 33.212 28.0921 33.212 21.8855C33.212 15.6789 28.1766 10.6436 21.97 10.6436ZM21.97 29.1779C17.9434 29.1779 14.6777 25.9121 14.6777 21.8855C14.6777 17.8589 17.9434 14.5932 21.97 14.5932C25.9966 14.5932 29.2623 17.8589 29.2623 21.8855C29.2623 25.9121 25.9966 29.1779 21.97 29.1779Z" fill="url(#paint1_linear_79_748)"/>
<path d="M36.2813 10.199C36.2813 11.6524 35.1016 12.8236 33.6568 12.8236C32.2034 12.8236 31.0322 11.6438 31.0322 10.199C31.0322 8.74568 32.212 7.57446 33.6568 7.57446C35.1016 7.57446 36.2813 8.75423 36.2813 10.199Z" fill="url(#paint2_linear_79_748)"/>
</g>
<defs>
<linearGradient id="paint0_linear_79_748" x1="21.9572" y1="0" x2="21.9572" y2="43.7625" gradientUnits="userSpaceOnUse">
<stop stop-color="#FEDA75"/>
<stop offset="0.247917" stop-color="#FA7E1E"/>
<stop offset="0.477083" stop-color="#D62976"/>
<stop offset="0.742708" stop-color="#962FBF"/>
<stop offset="1" stop-color="#4F5BD5"/>
</linearGradient>
<linearGradient id="paint1_linear_79_748" x1="21.97" y1="10.6436" x2="21.97" y2="33.1275" gradientUnits="userSpaceOnUse">
<stop stop-color="#FEDA75"/>
<stop offset="0.247917" stop-color="#FA7E1E"/>
<stop offset="0.477083" stop-color="#D62976"/>
<stop offset="0.742708" stop-color="#962FBF"/>
<stop offset="1" stop-color="#4F5BD5"/>
</linearGradient>
<linearGradient id="paint2_linear_79_748" x1="33.6568" y1="7.57446" x2="33.6568" y2="12.8236" gradientUnits="userSpaceOnUse">
<stop stop-color="#FEDA75"/>
<stop offset="0.247917" stop-color="#FA7E1E"/>
<stop offset="0.477083" stop-color="#D62976"/>
<stop offset="0.742708" stop-color="#962FBF"/>
<stop offset="1" stop-color="#4F5BD5"/>
</linearGradient>
<clipPath id="clip0_79_748">
<rect width="43.7711" height="43.7711" fill="white" transform="translate(0.0844727)"/>
</clipPath>
</defs>
</svg>
