<svg width="45" height="44" viewBox="0 0 45 44" fill="none" xmlns="http://www.w3.org/2000/svg">
<g clip-path="url(#clip0_79_774)">
<rect x="3.59131" y="2.73572" width="38.2997" height="38.2997" fill="white"/>
<path d="M41.3954 0H4.08663C3.22967 0 2.40781 0.340425 1.80185 0.946385C1.19589 1.55234 0.855469 2.3742 0.855469 3.23116V40.5399C0.855469 41.3969 1.19589 42.2187 1.80185 42.8247C2.40781 43.4307 3.22967 43.7711 4.08663 43.7711H41.3954C42.2524 43.7711 43.0742 43.4307 43.6802 42.8247C44.2861 42.2187 44.6266 41.3969 44.6266 40.5399V3.23116C44.6266 2.3742 44.2861 1.55234 43.6802 0.946385C43.0742 0.340425 42.2524 0 41.3954 0ZM13.9017 37.2875H7.32082V16.3838H13.9017V37.2875ZM10.6067 13.487C9.86021 13.4828 9.1317 13.2575 8.5131 12.8397C7.8945 12.4218 7.41354 11.8301 7.13092 11.1392C6.8483 10.4482 6.77669 9.68908 6.92512 8.95749C7.07354 8.2259 7.43536 7.55466 7.96491 7.02851C8.49445 6.50235 9.16799 6.14485 9.90052 6.00113C10.6331 5.8574 11.3917 5.93389 12.0808 6.22094C12.7699 6.50799 13.3586 6.99274 13.7724 7.614C14.1863 8.23527 14.4069 8.96521 14.4063 9.71171C14.4133 10.2115 14.3197 10.7076 14.1309 11.1704C13.9421 11.6332 13.6621 12.0533 13.3076 12.4056C12.953 12.7579 12.5311 13.0352 12.0671 13.221C11.6031 13.4068 11.1064 13.4972 10.6067 13.487ZM38.1582 37.3057H31.5803V25.8857C31.5803 22.5178 30.1487 21.4782 28.3006 21.4782C26.3491 21.4782 24.4341 22.9494 24.4341 25.9708V37.3057H17.8532V16.399H24.1818V19.2958H24.2669C24.9022 18.01 27.1272 15.8123 30.5225 15.8123C34.1944 15.8123 38.1612 17.9917 38.1612 24.375L38.1582 37.3057Z" fill="#0A66C2"/>
</g>
<defs>
<clipPath id="clip0_79_774">
<rect width="43.7711" height="43.7711" fill="white" transform="translate(0.855469)"/>
</clipPath>
</defs>
</svg>
