<svg width="45" height="44" viewBox="0 0 45 44" fill="none" xmlns="http://www.w3.org/2000/svg">
<g clip-path="url(#clip0_79_777)">
<path d="M25.629 21.5713C25.629 28.4484 20.102 34.0233 13.2844 34.0233C6.46688 34.0233 0.939453 28.4471 0.939453 21.5713C0.939453 14.6956 6.46646 9.11902 13.2844 9.11902C20.1024 9.11902 25.629 14.6943 25.629 21.5713Z" fill="#5884D6"/>
<path d="M39.1712 21.5713C39.1712 28.0445 36.4076 33.2942 32.9987 33.2942C29.5897 33.2942 26.8262 28.0445 26.8262 21.5713C26.8262 15.0981 29.5893 9.84839 32.9982 9.84839C36.4072 9.84839 39.1707 15.0964 39.1707 21.5713" fill="#5884D6"/>
<path d="M44.7105 21.5713C44.7105 27.3698 43.7387 32.0732 42.5396 32.0732C41.3405 32.0732 40.3691 27.371 40.3691 21.5713C40.3691 15.7716 41.3409 11.0695 42.5396 11.0695C43.7383 11.0695 44.7105 15.7712 44.7105 21.5713Z" fill="#5884D6"/>
</g>
<defs>
<clipPath id="clip0_79_777">
<rect width="43.7711" height="43.7711" fill="white" transform="translate(0.939453)"/>
</clipPath>
</defs>
</svg>
