<svg width="45" height="44" viewBox="0 0 45 44" fill="none" xmlns="http://www.w3.org/2000/svg">
<path d="M22.3675 0C10.2807 0 0.481934 9.79776 0.481934 21.8855C0.481934 33.9733 10.2807 43.7711 22.3675 43.7711C34.4543 43.7711 44.253 33.9733 44.253 21.8855C44.253 9.79776 34.4543 0 22.3675 0ZM33.045 31.5493C32.6935 32.1717 32.0469 32.5219 31.3804 32.5219C31.0687 32.5219 30.747 32.444 30.4519 32.2798C27.7195 30.7479 24.7417 29.8094 21.5949 29.4908C18.4414 29.1748 15.3276 29.4947 12.3366 30.4498C11.3385 30.7684 10.2641 30.217 9.94579 29.2172C9.62413 28.2158 10.1779 27.145 11.1793 26.8247C14.6677 25.7102 18.3054 25.3312 21.9795 25.7046C25.647 26.0779 29.1221 27.1722 32.3121 28.9602C33.2307 29.4715 33.5589 30.6315 33.045 31.5493ZM35.6646 24.9018C35.3264 25.5527 34.6632 25.9261 33.9768 25.9261C33.6783 25.9261 33.3799 25.8578 33.098 25.7102C29.7389 23.9607 26.1112 22.8774 22.3078 22.4914C18.4745 22.0991 14.6777 22.441 11.0168 23.4968C10.0055 23.7839 8.95099 23.2056 8.6625 22.1946C8.37069 21.1852 8.95428 20.1307 9.96234 19.8392C14.0941 18.6478 18.3783 18.2661 22.6924 18.7038C26.9767 19.1402 31.0687 20.3605 34.8588 22.3355C35.7873 22.8213 36.152 23.97 35.6646 24.9018ZM36.613 19.3714C36.3278 19.3714 36.0393 19.307 35.7641 19.1717C31.7783 17.1841 27.4907 15.9463 23.0174 15.4923C18.5375 15.034 14.0808 15.3882 9.76671 16.5402C8.75202 16.8094 7.71079 16.2076 7.43888 15.1912C7.16697 14.1762 7.7705 13.1327 8.78851 12.8617C13.547 11.591 18.4679 11.2041 23.4054 11.7061C28.3363 12.2052 33.0649 13.5717 37.4619 15.7646C38.4036 16.2334 38.7849 17.3771 38.3174 18.3169C37.9858 18.9857 37.3126 19.3714 36.613 19.3714Z" fill="#1ED760"/>
</svg>
