<svg width="45" height="44" viewBox="0 0 45 44" fill="none" xmlns="http://www.w3.org/2000/svg">
<g clip-path="url(#clip0_79_781)">
<path d="M14.3071 39.6688C30.8246 39.6688 39.8589 25.9842 39.8589 14.117C39.8589 13.7283 39.8589 13.3414 39.8327 12.9562C41.5902 11.6849 43.1074 10.1109 44.3131 8.30772C42.6742 9.03432 40.9355 9.51061 39.1551 9.72065C41.0299 8.59845 42.433 6.83318 43.1032 4.7535C41.3405 5.79965 39.4119 6.53686 37.4007 6.9333C36.0467 5.49356 34.256 4.54019 32.3056 4.22074C30.3551 3.90129 28.3538 4.23357 26.6113 5.16614C24.8687 6.09872 23.4821 7.57961 22.666 9.37965C21.8499 11.1797 21.6498 13.1985 22.0966 15.1237C18.5262 14.9446 15.0334 14.0168 11.8449 12.4003C8.65634 10.7839 5.84333 8.51501 3.58846 5.74098C2.44007 7.71796 2.08834 10.0583 2.60489 12.2855C3.12143 14.5127 4.46742 16.4593 6.3688 17.729C4.93959 17.6871 3.54149 17.3016 2.29284 16.605V16.7188C2.2934 18.7921 3.01114 20.8015 4.32431 22.406C5.63748 24.0106 7.46523 25.1115 9.49756 25.522C8.17545 25.8826 6.78826 25.9353 5.4426 25.6761C6.01669 27.4603 7.13397 29.0206 8.63826 30.1388C10.1425 31.257 11.9586 31.8771 13.8326 31.9126C11.9707 33.3761 9.83845 34.4582 7.5579 35.0969C5.27736 35.7356 2.89326 35.9184 0.541992 35.6349C4.64887 38.2703 9.42738 39.6682 14.3071 39.6618" fill="#1DA1F2"/>
</g>
<defs>
<clipPath id="clip0_79_781">
<rect width="43.7711" height="43.7711" fill="white" transform="translate(0.541992)"/>
</clipPath>
</defs>
</svg>
