<svg width="44" height="44" viewBox="0 0 44 44" fill="none" xmlns="http://www.w3.org/2000/svg">
<g clip-path="url(#clip0_79_760)">
<path d="M43.0673 11.281C42.8198 10.3498 42.3321 9.49992 41.653 8.81643C40.9739 8.13294 40.1271 7.6398 39.1975 7.38637C35.7754 6.46619 22.097 6.46619 22.097 6.46619C22.097 6.46619 8.4185 6.46619 4.9964 7.38637C4.0668 7.6398 3.22007 8.13294 2.54094 8.81643C1.86181 9.49992 1.37411 10.3498 1.12664 11.281C0.211426 14.718 0.211426 21.8855 0.211426 21.8855C0.211426 21.8855 0.211426 29.0531 1.12664 32.4901C1.37411 33.4213 1.86181 34.2712 2.54094 34.9547C3.22007 35.6382 4.0668 36.1313 4.9964 36.3847C8.4185 37.3049 22.097 37.3049 22.097 37.3049C22.097 37.3049 35.7754 37.3049 39.1975 36.3847C40.1271 36.1313 40.9739 35.6382 41.653 34.9547C42.3321 34.2712 42.8198 33.4213 43.0673 32.4901C43.9825 29.0531 43.9825 21.8855 43.9825 21.8855C43.9825 21.8855 43.9825 14.718 43.0673 11.281Z" fill="#FF0302"/>
<path d="M17.6211 28.3941V15.3772L29.0613 21.8857L17.6211 28.3941Z" fill="#FEFEFE"/>
</g>
<defs>
<clipPath id="clip0_79_760">
<rect width="43.7711" height="43.7711" fill="white" transform="translate(0.168457)"/>
</clipPath>
</defs>
</svg>
