<svg width="46" height="46" viewBox="0 0 46 46" fill="none" xmlns="http://www.w3.org/2000/svg">
<path d="M39.4121 32.4504C39.6778 31.9733 39.8429 31.4357 39.8429 30.9529V14.1954C39.8429 13.7126 39.678 13.1751 39.4122 12.698L22.9121 22.5742L39.4121 32.4504Z" fill="#00599C"/>
<path d="M24.3788 41.9646L38.3771 33.5859C38.7803 33.3445 39.1468 32.9277 39.4125 32.4504L22.9125 22.5742L6.4126 32.4506C6.67829 32.9277 7.0449 33.3446 7.44803 33.5859L21.4463 41.9646C22.2527 42.4473 23.5724 42.4473 24.3788 41.9646Z" fill="#004482"/>
<path d="M39.4123 12.698C39.1465 12.2207 38.7798 11.8039 38.3767 11.5626L24.3784 3.18384C23.572 2.70109 22.2523 2.70109 21.446 3.18384L7.44767 11.5626C6.64119 12.0452 5.98145 13.2301 5.98145 14.1955V30.953C5.98145 31.4358 6.14644 31.9734 6.41224 32.4505L22.9122 22.5743L39.4123 12.698Z" fill="#659AD2"/>
<path d="M22.9665 33.8614C16.7128 33.8614 11.625 28.798 11.625 22.5743C11.625 16.3505 16.7128 11.2871 22.9665 11.2871C26.9273 11.2871 30.6262 13.3691 32.6742 16.7357L27.8172 19.6487C26.791 17.9691 24.9437 16.9307 22.9665 16.9307C19.8396 16.9307 17.2957 19.4623 17.2957 22.5743C17.2957 25.6861 19.8396 28.2179 22.9665 28.2179C24.9384 28.2179 26.781 27.1852 27.8089 25.5135L32.6763 28.4096C30.6286 31.7781 26.9286 33.8614 22.9665 33.8614Z" fill="white"/>
<path d="M32.7883 21.8615H31.3774V20.458H29.9666V21.8615H28.5557V23.265H29.9666V24.6686H31.3774V23.265H32.7883V21.8615Z" fill="white"/>
<path d="M38.4319 21.8689H37.0209V20.458H35.6102V21.8689H34.1992V23.2797H35.6102V24.6907H37.0209V23.2797H38.4319V21.8689Z" fill="white"/>
</svg>
