<svg width="46" height="46" viewBox="0 0 46 46" fill="none" xmlns="http://www.w3.org/2000/svg">
<path d="M39.561 32.4504C39.8267 31.9733 39.9918 31.4357 39.9918 30.9529V14.1954C39.9918 13.7126 39.8269 13.1751 39.5611 12.698L23.061 22.5742L39.561 32.4504Z" fill="#7F3A86"/>
<path d="M24.5277 41.9646L38.526 33.5859C38.9292 33.3445 39.2957 32.9277 39.5614 32.4504L23.0615 22.5742L6.56152 32.4506C6.82721 32.9277 7.19383 33.3446 7.59695 33.5859L21.5952 41.9646C22.4016 42.4473 23.7213 42.4473 24.5277 41.9646Z" fill="#662579"/>
<path d="M39.5612 12.698C39.2954 12.2207 38.9288 11.8039 38.5256 11.5626L24.5273 3.18384C23.721 2.70109 22.4013 2.70109 21.5949 3.18384L7.5966 11.5626C6.79012 12.0452 6.13037 13.2301 6.13037 14.1955V30.953C6.13037 31.4358 6.29536 31.9734 6.56116 32.4505L23.0611 22.5743L39.5612 12.698Z" fill="#9A5196"/>
<path d="M23.1154 33.8614C16.8617 33.8614 11.7739 28.798 11.7739 22.5743C11.7739 16.3505 16.8617 11.2871 23.1154 11.2871C27.0762 11.2871 30.7751 13.3691 32.8231 16.7357L27.9661 19.6487C26.9399 17.9691 25.0926 16.9307 23.1154 16.9307C19.9885 16.9307 17.4447 19.4623 17.4447 22.5743C17.4447 25.6861 19.9885 28.2179 23.1154 28.2179C25.0873 28.2179 26.9299 27.1852 27.9578 25.5135L32.8252 28.4096C30.7775 31.7781 27.0775 33.8614 23.1154 33.8614Z" fill="white"/>
<path fill-rule="evenodd" clip-rule="evenodd" d="M35.7594 18.3416V19.7487H32.9374V18.3416H31.5267V19.7487H30.1157V21.1633H31.5267V23.9777H30.1157V25.396H31.5267V26.8069H32.9374L32.9375 25.396H35.7594V26.8069H37.1701V25.396H38.5811V23.9851H37.1701V21.1633H38.5811V19.7487H37.1701V18.3416H35.7594ZM35.7594 23.9851V21.1633H32.9374V23.9777L35.7594 23.9851Z" fill="white"/>
</svg>
