<svg width="46" height="46" viewBox="0 0 46 46" fill="none" xmlns="http://www.w3.org/2000/svg">
<circle cx="23.2096" cy="22.5743" r="19.7525" fill="#1794D4"/>
<path d="M26.0313 9.87622H23.2095V12.698H26.0313V9.87622Z" fill="white"/>
<path d="M14.7442 14.1089H17.566V16.9307H14.7442V14.1089Z" fill="white"/>
<path d="M9.10277 23.9025C9.34388 27.9959 11.7817 33.8615 20.3877 33.8615C29.9818 33.8615 34.2615 26.807 35.2021 23.2798C36.3779 23.2798 39.0116 22.5743 40.1403 19.7525C39.4348 19.047 36.613 19.047 35.2021 19.7525C35.2021 18.6238 34.4967 16.2252 33.0858 15.5198C32.1452 16.4604 30.6873 18.906 32.3804 21.1634C31.6749 22.5742 29.7938 22.5743 28.8532 22.5743H10.4309C9.68388 22.5743 9.05884 23.1568 9.10277 23.9025Z" fill="white"/>
<path d="M13.3333 18.3416H10.5115V21.1634H13.3333V18.3416Z" fill="white"/>
<path d="M14.7442 18.3416H17.566V21.1634H14.7442V18.3416Z" fill="white"/>
<path d="M21.7986 18.3416H18.9769V21.1634H21.7986V18.3416Z" fill="white"/>
<path d="M23.2095 18.3416H26.0313V21.1634H23.2095V18.3416Z" fill="white"/>
<path d="M30.264 18.3416H27.4422V21.1634H30.264V18.3416Z" fill="white"/>
<path d="M21.7986 14.1089H18.9769V16.9307H21.7986V14.1089Z" fill="white"/>
<path d="M23.2095 14.1089H26.0313V16.9307H23.2095V14.1089Z" fill="white"/>
</svg>
