<svg width="46" height="46" viewBox="0 0 46 46" fill="none" xmlns="http://www.w3.org/2000/svg">
<path d="M3.64766 24.5682C2.54648 23.467 2.54648 21.6816 3.64766 20.5805L20.5805 3.64766C21.6816 2.54648 23.467 2.54648 24.5682 3.64766L41.501 20.5805C42.6021 21.6816 42.6021 23.467 41.501 24.5682L24.5682 41.501C23.467 42.6021 21.6816 42.6021 20.5805 41.501L3.64766 24.5682Z" fill="#EE513B"/>
<path d="M17.141 7.14136L15.4263 8.85607L19.8549 13.2847C19.6758 13.6691 19.5758 14.0978 19.5758 14.5498C19.5758 15.8331 20.3821 16.9281 21.5158 17.3558V28.1894C20.3821 28.6172 19.5758 29.7122 19.5758 30.9955C19.5758 32.6514 20.9181 33.9937 22.5739 33.9937C24.2298 33.9937 25.5721 32.6514 25.5721 30.9955C25.5721 29.832 24.9093 28.8233 23.9407 28.3263V17.3705L28.1742 21.604C28.0037 21.9805 27.9089 22.3986 27.9089 22.8388C27.9089 24.4946 29.2512 25.8369 30.907 25.8369C32.5629 25.8369 33.9052 24.4946 33.9052 22.8388C33.9052 21.1829 32.5629 19.8406 30.907 19.8406C30.5853 19.8406 30.2753 19.8913 29.9848 19.9851L25.4382 15.4385C25.5252 15.1577 25.5721 14.8592 25.5721 14.5498C25.5721 12.8939 24.2298 11.5516 22.5739 11.5516C22.2645 11.5516 21.966 11.5985 21.6852 11.6855L17.141 7.14136Z" fill="white"/>
</svg>
