<svg width="33" height="33" viewBox="0 0 33 33" fill="none" xmlns="http://www.w3.org/2000/svg">
<g clip-path="url(#clip0_139_786)">
<path fill-rule="evenodd" clip-rule="evenodd" d="M18.1992 14.6187C17.8224 14.7241 17.4401 14.8311 16.9978 14.9513C16.7816 15.0125 16.7325 15.0264 16.5314 14.7819C16.2901 14.4939 16.1132 14.3075 15.7755 14.1381C14.7622 13.6129 13.7812 13.7654 12.8645 14.3922C11.7708 15.1377 11.2079 16.2389 11.224 17.6112C11.2401 18.9666 12.1246 20.0847 13.3952 20.2711C14.4888 20.4236 15.4056 20.017 16.1293 19.1529C16.274 18.9666 16.4028 18.7631 16.5635 18.5261H13.4595C13.1218 18.5261 13.0414 18.3058 13.1539 18.0178C13.363 17.4926 13.749 16.6116 13.9742 16.1711C14.0224 16.0695 14.135 15.9001 14.3762 15.9001H19.5518C19.7842 15.1241 20.1614 14.3908 20.6647 13.697C21.8387 12.0706 23.254 11.2235 25.1679 10.8677C26.8083 10.5628 28.3523 10.7322 29.7515 11.7318C31.022 12.6466 31.8101 13.8834 32.0192 15.5098C32.2926 17.797 31.6653 19.6606 30.1696 21.2532C29.1082 22.3883 27.8055 23.0998 26.3097 23.4217C26.0244 23.4774 25.7391 23.5038 25.4584 23.5298C25.3118 23.5433 25.1665 23.5568 25.0231 23.5742C23.5596 23.5403 22.2247 23.0998 21.0989 22.0833C20.3072 21.3624 19.7618 20.4764 19.4907 19.4449C19.3026 19.8451 19.0777 20.2284 18.8151 20.593C17.6572 22.2025 16.1454 23.2021 14.2315 23.4731C12.6554 23.6934 11.1918 23.3715 9.90521 22.355C8.71507 21.4062 8.03959 20.1525 7.86268 18.5938C7.6536 16.7472 8.16826 15.0868 9.22973 13.6298C10.3716 12.0542 11.8834 11.0547 13.7329 10.6989C15.2447 10.4109 16.6922 10.5972 17.9949 11.529C18.8473 12.122 19.4584 12.9352 19.8605 13.9179C19.957 14.0703 19.8927 14.155 19.6997 14.2059C19.136 14.3567 18.6718 14.4865 18.1992 14.6187ZM28.8397 16.5485C28.8428 16.6054 28.8461 16.6653 28.8508 16.7297C28.7704 18.1867 28.0789 19.2709 26.8083 19.9656C25.9559 20.423 25.0714 20.4738 24.1868 20.0672C23.0288 19.5251 22.4177 18.1867 22.7072 16.8652C23.061 15.2726 24.026 14.2731 25.5217 13.9173C27.0496 13.5446 28.5131 14.4933 28.8026 16.1706C28.8254 16.2905 28.832 16.4105 28.8397 16.5485Z" fill="#00ACD7"/>
<path d="M2.52615 14.4262C2.49398 14.477 2.51007 14.5109 2.5744 14.5109L7.36414 14.5278C7.41239 14.5278 7.49281 14.477 7.52497 14.4262L7.79838 13.9857C7.83055 13.9349 7.81446 13.884 7.75013 13.884H3.0408C2.97647 13.884 2.89606 13.9179 2.86389 13.9687L2.52615 14.4262Z" fill="#00ACD7"/>
<path d="M0.0976258 15.9848C0.0654601 16.0356 0.081543 16.0695 0.145875 16.0695L6.72082 16.0525C6.78515 16.0525 6.84948 16.0186 6.86557 15.9509L6.99423 15.5443C7.01031 15.4934 6.97815 15.4426 6.91381 15.4426H0.612278C0.547947 15.4426 0.467532 15.4765 0.435366 15.5273L0.0976258 15.9848Z" fill="#00ACD7"/>
<path d="M3.98967 17.5265C3.9575 17.5774 3.97359 17.6282 4.03792 17.6282L6.51173 17.6451C6.55998 17.6451 6.62431 17.5943 6.62431 17.5265L6.65648 17.1199C6.65648 17.0522 6.62431 17.0013 6.55998 17.0013H4.37566C4.31133 17.0013 4.247 17.0522 4.21483 17.103L3.98967 17.5265Z" fill="#00ACD7"/>
</g>
<defs>
<clipPath id="clip0_139_786">
<rect width="32" height="32" fill="white" transform="translate(0.081543 0.574219)"/>
</clipPath>
</defs>
</svg>
