<svg width="30" height="30" viewBox="0 0 30 30" fill="none" xmlns="http://www.w3.org/2000/svg">
<path fill-rule="evenodd" clip-rule="evenodd" d="M19.0817 3.07434C16.8725 0.865198 13.2908 0.865193 11.0817 3.07433L3.08166 11.0743C0.872522 13.2835 0.872517 16.8652 3.08166 19.0743L11.0817 27.0743C13.2908 29.2835 16.8725 29.2835 19.0817 27.0743L27.0817 19.0743C29.2908 16.8652 29.2908 13.2835 27.0817 11.0743L19.0817 3.07434ZM11.8816 18.6743C13.649 20.4416 16.5143 20.4416 18.2816 18.6743C20.049 16.907 20.049 14.0416 18.2816 12.2743C16.5143 10.507 13.649 10.507 11.8816 12.2743C10.1143 14.0416 10.1143 16.907 11.8816 18.6743Z" fill="#2962FF"/>
</svg>
