<svg width="46" height="46" viewBox="0 0 46 46" fill="none" xmlns="http://www.w3.org/2000/svg">
<g clip-path="url(#clip0_139_730)">
<path d="M22.834 11.9088C32.1292 4.69274 27.3587 0 27.3587 0C28.0686 7.45995 19.6782 9.22137 17.4292 14.3476C15.8945 17.8456 18.4801 20.9086 22.8309 24.7688C22.4463 23.9138 21.8531 23.0831 21.2525 22.242C19.2041 19.3734 17.0702 16.385 22.834 11.9088Z" fill="#E76F00"/>
<path d="M24.318 26.3513C24.318 26.3513 27.1144 24.0951 24.8998 21.5878C17.3927 13.0816 33.1104 9.22137 33.1104 9.22137C23.5141 13.8444 24.9467 16.5885 27.3587 19.9221C29.9412 23.4967 24.318 26.3513 24.318 26.3513Z" fill="#E76F00"/>
<path d="M32.5512 33.0792C41.1651 28.6775 37.1824 24.4476 34.4025 25.0175C33.7211 25.1569 33.4173 25.2778 33.4173 25.2778C33.4173 25.2778 33.6702 24.8881 34.1534 24.7194C39.6529 22.8181 43.8824 30.327 32.3781 33.301C32.3781 33.3011 32.5113 33.184 32.5512 33.0792Z" fill="#5382A1"/>
<path d="M14.6272 27.5081C9.23766 26.8003 17.5822 24.8513 17.5822 24.8513C17.5822 24.8513 14.3417 24.6364 10.3562 26.5309C5.64363 28.7725 22.0132 29.7921 30.487 27.6005C31.3679 27.009 32.5856 26.4962 32.5856 26.4962C32.5856 26.4962 29.118 27.1053 25.6647 27.3917C21.4392 27.7399 16.9028 27.8077 14.6272 27.5081Z" fill="#5382A1"/>
<path d="M16.6776 31.711C13.6723 31.4053 15.6401 29.9729 15.6401 29.9729C7.86326 32.5111 19.967 35.3894 30.8339 32.2646C29.6788 31.8642 28.9442 31.1318 28.9442 31.1318C23.6333 32.1375 20.5641 32.1052 16.6776 31.711Z" fill="#5382A1"/>
<path d="M17.9871 36.2587C14.984 35.9192 16.7385 34.9159 16.7385 34.9159C9.67902 36.8556 21.0325 40.863 30.0204 37.075C28.5482 36.5121 27.4941 35.8622 27.4941 35.8622C23.4848 36.6084 21.6254 36.6669 17.9871 36.2587Z" fill="#5382A1"/>
<path d="M36.7861 38.5721C36.7861 38.5721 38.0845 39.6241 35.3562 40.438C30.1683 41.9834 13.7635 42.4501 9.20637 40.4995C7.56818 39.7987 10.6402 38.8262 11.6066 38.6221C12.6144 38.4072 13.1903 38.4472 13.1903 38.4472C11.3685 37.1852 1.41477 40.9253 8.13434 41.9964C26.4596 44.9188 41.5395 40.6805 36.7861 38.5721Z" fill="#5382A1"/>
<path d="M39.6945 40.8706C39.3938 44.7178 26.6969 45.5271 18.4286 45.0066C13.0347 44.6665 11.9536 43.8164 11.9378 43.804C17.1003 44.6409 25.8041 44.7933 32.8612 43.4873C39.1165 42.3291 39.6945 40.8706 39.6945 40.8706Z" fill="#5382A1"/>
</g>
<defs>
<clipPath id="clip0_139_730">
<rect width="45.1487" height="45.1487" fill="white" transform="translate(0.189453)"/>
</clipPath>
</defs>
</svg>
