<svg width="46" height="46" viewBox="0 0 46 46" fill="none" xmlns="http://www.w3.org/2000/svg">
<rect x="3.4165" y="2.82178" width="39.5051" height="39.5051" fill="#FFCA28"/>
<path d="M27.4017 35.6783L30.3103 33.7537C30.5382 34.4698 31.9817 36.1706 33.805 36.1706C35.6283 36.1706 36.4748 35.1748 36.4748 34.5146C36.4748 32.7154 34.613 32.0811 33.7188 31.7764C33.573 31.7267 33.4529 31.6858 33.3709 31.6501C33.3288 31.6317 33.2651 31.6074 33.1834 31.5762C32.1888 31.1962 28.5195 29.7943 28.5195 25.7308C28.5195 21.2549 32.8391 20.7402 33.8158 20.7402C34.4549 20.7402 37.5276 20.8186 39.0578 23.6943L36.2361 25.6636C35.6174 24.4104 34.5896 23.9964 33.9569 23.9964C32.3941 23.9964 32.0685 25.1421 32.0685 25.6636C32.0685 27.127 33.7665 27.783 35.2002 28.3368C35.5753 28.4817 35.9323 28.6196 36.2361 28.7631C37.7989 29.5017 40.0997 30.7101 40.0997 34.5146C40.0997 36.4201 38.5015 39.5051 34.4779 39.5051C29.073 39.5051 27.6404 36.2602 27.4017 35.6783Z" fill="#3E3E3E"/>
<path d="M13.2927 36.0605L16.3243 34.1369C16.5618 34.8526 17.4849 36.1723 18.8242 36.1723C20.1635 36.1723 20.849 34.7967 20.849 34.1369V21.1635H24.5773V34.1369C24.6377 35.9263 23.6453 39.5052 19.2653 39.5052C15.2383 39.5052 13.5642 37.1118 13.2927 36.0605Z" fill="#3E3E3E"/>
</svg>
