<svg width="46" height="46" viewBox="0 0 46 46" fill="none" xmlns="http://www.w3.org/2000/svg">
<path d="M24.972 3.24324C23.9705 2.68002 22.6649 2.68256 21.6626 3.24324C16.6426 6.0136 11.6225 8.7848 6.60165 11.5539C5.62465 12.0679 4.96569 13.1171 4.9762 14.2061V30.9448C4.96914 32.0551 5.66208 33.1144 6.66428 33.6214C8.10645 34.3886 9.50759 35.2338 10.9758 35.9499C12.6718 36.7833 14.7937 36.9676 16.5104 36.0985C17.9039 35.3781 18.5229 33.7761 18.5211 32.3039C18.5324 26.7796 18.5229 21.2552 18.5254 15.731C18.5586 15.4854 18.3743 15.223 18.1065 15.2289C17.4649 15.2188 16.8225 15.223 16.181 15.2273C15.9386 15.2043 15.702 15.4057 15.7203 15.6493C15.7117 21.138 15.722 26.6283 15.7151 32.1178C15.7291 32.8772 15.2161 33.607 14.4843 33.8635C12.7941 34.4559 7.96996 31.3236 7.96996 31.3236C7.79293 31.2416 7.6805 31.0496 7.69785 30.8589C7.69785 25.3363 7.69872 19.8136 7.69785 14.2919C7.67352 14.0693 7.81073 13.8688 8.01517 13.7779C13.0186 11.0239 18.0195 8.26295 23.023 5.50722C23.1967 5.39124 23.4391 5.39158 23.6124 5.50807C28.6159 8.26295 33.6177 11.0213 38.622 13.7755C38.8272 13.8663 38.9585 14.0701 38.9376 14.2919C38.9367 19.8136 38.9393 25.3363 38.9359 30.858C38.9507 31.0535 38.8498 31.2428 38.6672 31.3287C33.7104 34.0678 28.6973 36.7185 23.7854 39.5372C23.5711 39.6601 23.3283 39.7994 23.0882 39.6639C21.7965 38.9495 20.5205 38.2071 19.2331 37.4858C19.0931 37.3984 18.9149 37.361 18.7689 37.4586C18.1916 37.7628 17.6488 38.0092 16.986 38.2716C16.0549 38.6401 16.2037 38.7909 17.0433 39.28C18.5489 40.132 20.057 40.9807 21.5625 41.8337C22.5537 42.4522 23.8854 42.4962 24.9085 41.9245C29.9294 39.1577 34.9485 36.3875 39.9703 33.6207C40.9699 33.1109 41.6663 32.0558 41.6592 30.9447V14.2061C41.6689 13.1391 41.0351 12.1087 40.0876 11.5871C35.0502 8.80323 30.0103 6.02542 24.972 3.24324Z" fill="#8CC84B"/>
<path d="M32.5476 15.8108C30.577 14.7566 28.2327 14.7004 26.0429 14.8382C24.4609 14.9945 22.797 15.4311 21.6443 16.5651C20.4622 17.7052 20.2049 19.5461 20.7664 21.0344C21.1688 22.0859 22.1816 22.7699 23.2291 23.1316C24.5784 23.6079 25.9954 23.7552 27.413 23.9025C28.7059 24.0369 29.9993 24.1713 31.242 24.5555C31.7497 24.7237 32.3408 24.9811 32.4963 25.5333C32.6399 26.1874 32.4825 26.9477 31.9514 27.4022C30.2645 28.7374 25.5722 28.5328 23.9054 27.482C23.2316 27.0343 22.9412 26.2417 22.8232 25.4866C22.8101 25.2512 22.6206 25.0354 22.3651 25.0533C21.7253 25.0457 21.0854 25.0473 20.4456 25.0524C20.2223 25.0337 19.9902 25.1925 19.978 25.4203C19.8466 28.8794 23.0233 30.3874 26.0038 30.7194C27.7068 30.8817 29.447 30.8724 31.1238 30.507C32.3843 30.22 33.6481 29.6915 34.5158 28.7205C35.5859 27.5406 35.7962 25.7839 35.3163 24.3142C34.9495 23.2176 33.9011 22.5141 32.8293 22.1522C31.372 21.6525 29.6447 21.3839 28.3247 21.2581C26.406 21.0754 24.126 21.15 23.5829 19.8892C23.3664 19.2291 23.5507 18.4094 24.1574 18.0033C25.7626 16.9145 29.0294 17.0591 30.6918 17.8725C31.4551 18.2547 31.8974 19.0397 32.08 19.8322C32.1138 20.0651 32.2704 20.3079 32.5399 20.2978C33.1753 20.3105 33.8108 20.3012 34.4462 20.302C34.6644 20.3174 34.9034 20.1941 34.946 19.9707C34.9191 18.3143 34.0733 16.6187 32.5476 15.8108Z" fill="#8CC84B"/>
</svg>
