<svg width="46" height="46" viewBox="0 0 46 46" fill="none" xmlns="http://www.w3.org/2000/svg">
<path fill-rule="evenodd" clip-rule="evenodd" d="M18.4053 2.82178C15.3054 2.82178 12.7925 5.25491 12.7925 8.25633V12.0187H22.5069V13.0638H8.47504C5.37521 13.0638 2.8623 15.497 2.8623 18.4984L2.86231 26.6502C2.86231 29.6516 5.37521 32.0848 8.47504 32.0848H11.7132V27.4863C11.7132 24.4849 14.2261 22.0517 17.3259 22.0517H27.6879C30.3108 22.0517 32.4371 19.9929 32.4371 17.4533V8.25633C32.4371 5.25491 29.9242 2.82178 26.8244 2.82178H18.4053ZM17.11 9.51046C18.183 9.51046 19.0529 8.66822 19.0529 7.62927C19.0529 6.59032 18.183 5.74808 17.11 5.74808C16.037 5.74808 15.1672 6.59032 15.1672 7.62927C15.1672 8.66822 16.037 9.51046 17.11 9.51046Z" fill="url(#paint0_linear_139_729)"/>
<path fill-rule="evenodd" clip-rule="evenodd" d="M26.8243 42.327C29.9242 42.327 32.4371 39.8938 32.4371 36.8924V33.13L22.7227 33.13L22.7227 32.0849L36.7546 32.0849C39.8544 32.0849 42.3673 29.6518 42.3673 26.6504V18.4985C42.3673 15.4971 39.8544 13.064 36.7546 13.064L33.5164 13.064V17.6624C33.5164 20.6639 31.0035 23.097 27.9037 23.097L17.5417 23.097C14.9188 23.097 12.7925 25.1558 12.7925 27.6955L12.7925 36.8924C12.7925 39.8938 15.3054 42.327 18.4052 42.327H26.8243ZM28.1196 35.6383C27.0466 35.6383 26.1767 36.4805 26.1767 37.5195C26.1767 38.5584 27.0466 39.4007 28.1196 39.4007C29.1926 39.4007 30.0624 38.5584 30.0624 37.5195C30.0624 36.4805 29.1926 35.6383 28.1196 35.6383Z" fill="url(#paint1_linear_139_729)"/>
<defs>
<linearGradient id="paint0_linear_139_729" x1="17.6497" y1="2.82178" x2="17.6497" y2="32.0848" gradientUnits="userSpaceOnUse">
<stop stop-color="#327EBD"/>
<stop offset="1" stop-color="#1565A7"/>
</linearGradient>
<linearGradient id="paint1_linear_139_729" x1="27.5799" y1="13.064" x2="27.5799" y2="42.327" gradientUnits="userSpaceOnUse">
<stop stop-color="#FFDA4B"/>
<stop offset="1" stop-color="#F9C600"/>
</linearGradient>
</defs>
</svg>
