<svg width="46" height="46" viewBox="0 0 46 46" fill="none" xmlns="http://www.w3.org/2000/svg">
<path d="M27.1384 22.5403C27.1384 20.5165 25.4463 18.8757 23.3587 18.8757C21.2714 18.8757 19.5791 20.5165 19.5791 22.5403C19.5791 24.5643 21.2714 26.2051 23.3587 26.2051C25.4463 26.2051 27.1384 24.5643 27.1384 22.5403Z" fill="#53C1DE"/>
<path fill-rule="evenodd" clip-rule="evenodd" d="M35.634 15.7367C36.4323 12.5919 37.4356 6.76026 33.8987 4.78314C30.3784 2.81464 25.7974 6.58664 23.3784 8.85079C20.9665 6.6092 16.2568 2.85333 12.7229 4.83672C9.20394 6.81182 10.2891 12.5468 11.105 15.7113C7.8224 16.6153 2.19531 18.5623 2.19531 22.5403C2.19531 26.5071 7.81655 28.6253 11.0797 29.5285C10.2608 32.7105 9.22998 38.3635 12.7534 40.3342C16.3004 42.3172 20.9955 38.6508 23.4369 36.3619C25.8714 38.6393 30.4084 42.3298 33.9294 40.3536C37.4616 38.3711 36.5415 32.6176 35.7256 29.4347C38.8888 28.5297 44.5222 26.4575 44.5222 22.5403C44.5222 18.6005 38.8649 16.6376 35.634 15.7367ZM35.2332 27.748C34.6974 26.1038 33.9744 24.3553 33.0898 22.549C33.9341 20.7855 34.6291 19.0595 35.1498 17.4258C37.5183 18.0916 42.7141 19.6133 42.7141 22.5403C42.7141 25.4948 37.7282 27.0309 35.2332 27.748ZM33.0233 38.8363C30.3964 40.3107 26.494 36.7815 24.696 35.1043C25.8887 33.8395 27.0807 32.3691 28.2439 30.7363C30.2903 30.5603 32.2234 30.2724 33.9766 29.8795C34.5509 32.1309 35.6621 37.3552 33.0233 38.8363ZM13.6569 38.8152C11.0295 37.3464 12.2304 32.3019 12.8328 29.958C14.5665 30.3298 16.4857 30.5973 18.5368 30.7586C19.7078 32.3563 20.9342 33.825 22.1702 35.111C20.6431 36.5432 16.2965 40.2909 13.6569 38.8152ZM4.00336 22.5403C4.00336 19.5747 9.16805 18.0641 11.5905 17.4C12.1203 19.0704 12.8151 20.8169 13.6535 22.583C12.8042 24.3754 12.0995 26.1497 11.5649 27.8397C9.255 27.1987 4.00336 25.5078 4.00336 22.5403ZM13.6288 6.354C16.2669 4.87344 20.3602 8.47922 22.1114 10.1022C20.8818 11.3824 19.6666 12.84 18.5058 14.4285C16.5151 14.6073 14.6094 14.8947 12.8576 15.2795C12.2003 12.7273 10.9935 7.83297 13.6288 6.354ZM29.5374 16.334C30.888 16.4993 32.1819 16.7191 33.3968 16.9881C33.0321 18.1216 32.5775 19.3069 32.0421 20.5219C31.266 19.094 30.4328 17.6949 29.5374 16.334ZM23.379 11.355C24.2129 12.231 25.0482 13.2092 25.8698 14.2704C24.2032 14.1941 22.5338 14.1937 20.8672 14.2693C21.6895 13.2179 22.5319 12.2412 23.379 11.355ZM14.6909 20.5207C14.1643 19.3098 13.7138 18.1192 13.3459 16.9695C14.5536 16.7075 15.8415 16.4933 17.1832 16.3308C16.2854 17.6886 15.4536 19.0872 14.6909 20.5207ZM17.2218 28.875C15.8356 28.725 14.5283 28.5217 13.321 28.2669C13.6947 27.0969 14.1552 25.8807 14.693 24.6439C15.4662 26.0921 16.3106 27.5043 17.2218 28.875ZM23.429 33.8495C22.572 32.9528 21.7172 31.9611 20.8823 30.8945C22.5585 30.9583 24.2379 30.9584 25.9138 30.8859C25.0896 31.972 24.2573 32.9651 23.429 33.8495ZM32.0594 24.5809C32.6251 25.8311 33.102 27.0408 33.4808 28.191C32.2534 28.4625 30.9285 28.6812 29.5324 28.8436C30.4344 27.457 31.2807 26.0361 32.0594 24.5809ZM27.2348 29.0561C24.6711 29.2337 22.0911 29.2318 19.5265 29.0706C18.0691 27.0066 16.7719 24.8359 15.6521 22.5824C16.7664 20.3336 18.0543 18.1673 19.5047 16.1065C22.0714 15.9184 24.6537 15.9179 27.2202 16.1076C28.6582 18.1682 29.9441 20.329 31.0843 22.5576C29.9576 24.8053 28.663 26.976 27.2348 29.0561ZM32.9956 6.30188C35.6344 7.77759 34.4598 13.0187 33.8833 15.2977C32.1274 14.9048 30.2204 14.6124 28.2239 14.4308C27.0608 12.8251 25.8558 11.365 24.646 10.1013C26.4197 8.44335 30.3823 4.8406 32.9956 6.30188Z" fill="#53C1DE"/>
</svg>
