<svg width="33" height="33" viewBox="0 0 33 33" fill="none" xmlns="http://www.w3.org/2000/svg">
<path d="M30.1487 16.5742C30.1487 24.3022 23.8837 30.5742 16.1487 30.5742C8.41368 30.5742 2.14868 24.3022 2.14868 16.5742C2.14868 8.83922 8.41368 2.57422 16.1487 2.57422C23.8837 2.57422 30.1487 8.83922 30.1487 16.5742Z" fill="#E95420"/>
<path d="M6.97023 14.7305C5.96053 14.7305 5.14868 15.5607 5.14868 16.5777C5.14868 17.5947 5.96735 18.4249 6.97023 18.4249C7.9731 18.4249 8.79177 17.5947 8.79177 16.5777C8.79177 15.5538 7.9731 14.7305 6.97023 14.7305ZM19.9803 23.1224C19.107 23.6344 18.8137 24.7621 19.3117 25.6476C19.8165 26.5332 20.9286 26.8376 21.8018 26.3256C22.6751 25.8137 22.9684 24.686 22.4704 23.8004C21.9587 22.9218 20.8467 22.6174 19.9803 23.1224ZM10.9271 16.5777C10.9271 14.7512 11.8209 13.1393 13.1921 12.1638L11.8618 9.90147C10.2654 10.9807 9.08513 12.6342 8.5871 14.5644C9.16017 15.0418 9.52857 15.7682 9.52857 16.5777C9.52857 17.3871 9.16017 18.1136 8.5871 18.5909C9.0783 20.5211 10.2654 22.1746 11.8618 23.2539L13.1921 20.9916C11.8209 20.0161 10.9271 18.4041 10.9271 16.5777ZM16.2485 11.1814C19.032 11.1814 21.3106 13.3399 21.5494 16.1003L24.1487 16.0588C24.0191 14.0248 23.1458 12.1984 21.795 10.8562C21.0991 11.1191 20.3009 11.0776 19.6119 10.6763C18.916 10.2681 18.4862 9.59015 18.3634 8.84296C17.688 8.65617 16.9785 8.55239 16.2485 8.55239C14.9864 8.55239 13.7993 8.84988 12.7419 9.38259L14.0108 11.6795C14.6862 11.3612 15.4503 11.1814 16.2485 11.1814V11.1814ZM16.2485 21.974C15.4503 21.974 14.6862 21.7941 14.004 21.4759L12.735 23.7728C13.7925 24.3055 14.9864 24.603 16.2417 24.603C16.9717 24.603 17.6812 24.4992 18.3566 24.3124C18.4726 23.5721 18.9092 22.8872 19.6051 22.479C20.2941 22.0708 21.0991 22.0363 21.7882 22.2992C23.1322 20.957 24.0122 19.1305 24.1419 17.0966L21.5426 17.055C21.3106 19.8085 19.032 21.974 16.2485 21.974V21.974ZM19.9735 10.026C20.8467 10.538 21.9587 10.2336 22.4636 9.348C22.9684 8.46245 22.6683 7.33476 21.795 6.8228C20.9218 6.31085 19.8097 6.61526 19.3049 7.5008C18.8069 8.38635 19.107 9.51404 19.9735 10.026Z" fill="white"/>
</svg>
