<svg width="47" height="46" viewBox="0 0 47 46" fill="none" xmlns="http://www.w3.org/2000/svg">
<g clip-path="url(#clip0_139_728)">
<path d="M30.5232 4.39745C30.5232 3.15733 29.1347 3.15732 28.5176 3.31233C29.3815 2.63026 30.3946 2.79563 30.7546 3.00232L39.0977 7.09322C39.8927 7.48302 40.397 8.29408 40.397 9.1829V36.0951C40.397 36.9958 39.8793 37.8155 39.0682 38.199L31.2174 41.9111C30.6775 42.1436 29.505 42.7172 28.5176 41.9111C29.7518 42.1436 30.4203 41.2652 30.5232 40.671V4.39745Z" fill="url(#paint0_linear_139_728)"/>
<path d="M28.6179 3.28999C29.2729 3.16056 30.5234 3.22058 30.5234 4.39747V13.661L5.2286 32.7966C4.78647 33.1311 4.16424 33.0756 3.78765 32.6681L1.18066 29.8472C0.772254 29.4052 0.80083 28.7135 1.24428 28.3071L28.5178 3.31234L28.6179 3.28999Z" fill="url(#paint1_linear_139_728)"/>
<path d="M30.5234 31.5627L5.2286 12.427C4.78647 12.0925 4.16424 12.148 3.78765 12.5555L1.18066 15.3765C0.772254 15.8184 0.80083 16.5101 1.24428 16.9165L28.5178 41.9113V41.9113C29.752 42.1438 30.4205 41.2653 30.5234 40.6711V31.5627Z" fill="url(#paint2_linear_139_728)"/>
</g>
<defs>
<linearGradient id="paint0_linear_139_728" x1="34.4573" y1="2.82178" x2="34.4573" y2="42.3268" gradientUnits="userSpaceOnUse">
<stop stop-color="#32B5F1"/>
<stop offset="1" stop-color="#2B9FED"/>
</linearGradient>
<linearGradient id="paint1_linear_139_728" x1="30.5234" y1="7.80778" x2="2.33361" y2="31.4701" gradientUnits="userSpaceOnUse">
<stop stop-color="#0F6FB3"/>
<stop offset="0.270551" stop-color="#1279B7"/>
<stop offset="0.421376" stop-color="#1176B5"/>
<stop offset="0.618197" stop-color="#0E69AC"/>
<stop offset="0.855344" stop-color="#0F70AF"/>
<stop offset="1" stop-color="#0F6DAD"/>
</linearGradient>
<linearGradient id="paint2_linear_139_728" x1="2.52198" y1="14.086" x2="30.6325" y2="37.3615" gradientUnits="userSpaceOnUse">
<stop stop-color="#1791D2"/>
<stop offset="1" stop-color="#1173C5"/>
</linearGradient>
<clipPath id="clip0_139_728">
<rect width="45.1487" height="45.1487" fill="white" transform="translate(0.89209)"/>
</clipPath>
</defs>
</svg>
