<svg width="415" height="73" viewBox="0 0 415 73" fill="none" xmlns="http://www.w3.org/2000/svg">
<path d="M1.1 70C2.43333 70 3.6 69.7 4.6 69.1C5.66667 68.4333 6.6 67.6333 7.4 66.7C8.26667 65.7667 9 64.7333 9.6 63.6C10.2 62.4667 10.7 61.3667 11.1 60.3L34.1 -4.76837e-06H37.4L62.4 60.3C62.8 61.3 63.3 62.3667 63.9 63.5C64.5667 64.6333 65.3333 65.7 66.2 66.7C67.0667 67.6333 68 68.4333 69 69.1C70.0667 69.7 71.2333 70 72.5 70H44.3C45.9667 69.9333 47.2667 69.4 48.2 68.4C49.2 67.4 49.7 66.0333 49.7 64.3C49.7 63.3 49.4333 62 48.9 60.4C48.4333 58.8 47.8333 57.1667 47.1 55.5C46.4333 53.7667 45.7333 52.1333 45 50.6C44.3333 49 43.8 47.7333 43.4 46.8H18.6C18.2667 47.7333 17.7667 49 17.1 50.6C16.4333 52.1333 15.7667 53.7667 15.1 55.5C14.4333 57.1667 13.8333 58.8 13.3 60.4C12.8333 61.9333 12.6 63.2 12.6 64.2C12.6 66.0667 13.1333 67.5 14.2 68.5C15.3333 69.5 16.8 70 18.6 70H1.1ZM19.4 44.7H42.6C40.4667 39.9 38.4333 35.0333 36.5 30.1C34.5667 25.1667 32.6333 20.2333 30.7 15.3L19.4 44.7ZM43.8 70H44.3H43.8ZM0.8 70H1.1H0.8ZM68.9867 -4.76837e-06H93.4867C93.5534 0.866663 93.8201 1.7 94.2867 2.5C94.8201 3.23333 95.3534 3.93333 95.8867 4.6C101.42 11.8667 106.753 19.2 111.887 26.6C117.02 33.9333 122.32 41.2333 127.787 48.5V10.7C127.787 7.96666 127.087 5.5 125.687 3.29999C124.287 1.09999 122.053 -4.76837e-06 118.987 -4.76837e-06H138.387C136.92 -4.76837e-06 135.653 0.333328 134.587 0.999994C133.52 1.59999 132.653 2.4 131.987 3.4C131.32 4.4 130.82 5.53333 130.487 6.8C130.153 8.06666 129.987 9.36666 129.987 10.7V70H126.287L79.8867 7.7V59.3C79.8867 60.6333 80.0534 61.9667 80.3867 63.3C80.7201 64.5667 81.2201 65.7 81.8867 66.7C82.6201 67.7 83.5201 68.5 84.5867 69.1C85.7201 69.7 87.0534 70 88.5867 70H68.9867C70.5201 70 71.8201 69.7 72.8867 69.1C73.9534 68.4333 74.8201 67.6 75.4867 66.6C76.2201 65.6 76.7534 64.4667 77.0867 63.2C77.4201 61.9333 77.5867 60.6333 77.5867 59.3V10.7C77.5867 9.36666 77.4201 8.06666 77.0867 6.8C76.7534 5.53333 76.2201 4.4 75.4867 3.4C74.8201 2.4 73.9534 1.59999 72.8867 0.999994C71.8201 0.333328 70.5201 -4.76837e-06 68.9867 -4.76837e-06ZM134.883 -4.76837e-06H164.583C163.049 -4.76837e-06 161.716 0.333328 160.583 0.999994C159.516 1.59999 158.616 2.4 157.883 3.4C157.216 4.4 156.716 5.56666 156.383 6.9C156.049 8.16666 155.883 9.46666 155.883 10.8V59.3C155.883 62.1 156.683 64.6 158.283 66.8C159.883 68.9333 162.183 70 165.183 70H135.483C137.016 70 138.283 69.7 139.283 69.1C140.349 68.4333 141.183 67.6 141.783 66.6C142.449 65.6 142.916 64.4667 143.183 63.2C143.449 61.8667 143.583 60.5667 143.583 59.3V10.8C143.583 9.46666 143.416 8.16666 143.083 6.9C142.749 5.56666 142.216 4.4 141.483 3.4C140.816 2.4 139.916 1.59999 138.783 0.999994C137.716 0.333328 136.416 -4.76837e-06 134.883 -4.76837e-06ZM162.891 0.999994H198.191C200.724 0.999994 203.191 1.43333 205.591 2.3C208.057 3.1 210.257 4.3 212.191 5.9C214.124 7.43333 215.691 9.3 216.891 11.5C218.091 13.6333 218.691 16.0667 218.691 18.8C218.691 21.2 218.191 23.4333 217.191 25.5C216.257 27.5 214.991 29.2667 213.391 30.8C211.791 32.2667 209.957 33.5 207.891 34.5C205.824 35.4333 203.657 36.0333 201.391 36.3C203.591 36.5 205.357 37.2 206.691 38.4C208.024 39.5333 209.191 41 210.191 42.8C211.191 44.5333 212.157 46.4667 213.091 48.6C214.024 50.7333 215.157 52.8667 216.491 55C217.824 57.1333 219.457 59.1667 221.391 61.1C223.324 62.9667 225.857 64.5333 228.991 65.8C232.257 67.1333 235.591 67.8 238.991 67.8C243.791 67.8 248.291 66.7333 252.491 64.6C256.691 62.4 260.224 59.3667 263.091 55.5C259.824 60.9667 255.724 65.1333 250.791 68C245.924 70.8667 240.291 72.3 233.891 72.3C231.491 72.3 228.991 72.0667 226.391 71.6C223.791 71.1333 221.257 70.4 218.791 69.4C216.391 68.4 214.157 67.1333 212.091 65.6C210.024 64.0667 208.324 62.2333 206.991 60.1C205.591 57.9 204.291 55.4333 203.091 52.7C201.891 49.9667 200.524 47.4 198.991 45C197.524 42.6 195.724 40.6 193.591 39C191.524 37.4 188.857 36.6 185.591 36.6H183.691V59.5C183.691 62.2333 184.357 64.6667 185.691 66.8C187.024 68.9333 189.191 70 192.191 70H162.891C165.891 70 168.057 68.9333 169.391 66.8C170.791 64.6667 171.491 62.2333 171.491 59.5V11.6C171.491 10.2667 171.324 8.96666 170.991 7.7C170.657 6.43333 170.124 5.3 169.391 4.3C168.724 3.3 167.857 2.49999 166.791 1.89999C165.724 1.29999 164.424 0.999994 162.891 0.999994ZM183.691 3.2V34.6H188.091C190.424 34.6 192.657 34.2667 194.791 33.6C196.991 32.8667 198.924 31.8333 200.591 30.5C202.257 29.1667 203.591 27.5333 204.591 25.6C205.591 23.6667 206.091 21.4333 206.091 18.9C206.091 16.3667 205.591 14.1333 204.591 12.2C203.591 10.2667 202.257 8.63333 200.591 7.3C198.924 5.96666 196.991 4.96667 194.791 4.3C192.657 3.56666 190.424 3.2 188.091 3.2H183.691ZM216.191 1.1H238.091C235.824 1.1 234.191 1.9 233.191 3.5C232.191 5.1 231.691 6.9 231.691 8.9V36.5C231.691 41.1 233.024 44.5 235.691 46.7C238.424 48.8333 241.991 49.9 246.391 49.9C250.924 49.9 254.457 48.8667 256.991 46.8C259.591 44.6667 260.891 41.2333 260.891 36.5V8.9C260.891 6.9 260.391 5.1 259.391 3.5C258.391 1.9 256.757 1.1 254.491 1.1H268.891C266.691 1.1 265.091 1.93333 264.091 3.6C263.091 5.2 262.591 6.96666 262.591 8.9V36.5C262.591 39.4333 262.024 41.9667 260.891 44.1C259.824 46.1667 258.357 47.9 256.491 49.3C254.691 50.6333 252.557 51.6333 250.091 52.3C247.691 52.9 245.157 53.2 242.491 53.2C239.757 53.2 237.157 52.9 234.691 52.3C232.291 51.7 230.191 50.7333 228.391 49.4C226.591 48.0667 225.157 46.3333 224.091 44.2C223.091 42.0667 222.591 39.5 222.591 36.5V8.9C222.591 6.9 222.091 5.1 221.091 3.5C220.091 1.9 218.457 1.1 216.191 1.1ZM275.48 59.4V10.7C275.48 7.89999 274.746 5.43333 273.28 3.29999C271.88 1.16666 269.68 0.066661 266.68 -4.76837e-06H303.48C308.48 -4.76837e-06 313.246 0.899996 317.78 2.7C322.313 4.5 326.28 7 329.68 10.2C333.146 13.4 335.88 17.2 337.88 21.6C339.88 25.9333 340.88 30.7 340.88 35.9C340.88 40.5667 340.013 44.9667 338.28 49.1C336.613 53.2333 334.28 56.8667 331.28 60C328.346 63.0667 324.846 65.5 320.78 67.3C316.713 69.1 312.313 70 307.58 70H266.68C269.68 69.9333 271.88 68.8667 273.28 66.8C274.746 64.6667 275.48 62.2 275.48 59.4ZM287.68 2.1V56.4C287.68 60.6667 288.946 63.6333 291.48 65.3C294.013 66.9667 297.246 67.8 301.18 67.8C305.78 67.8 309.78 66.9333 313.18 65.2C316.58 63.4667 319.38 61.1667 321.58 58.3C323.78 55.3667 325.413 51.9667 326.48 48.1C327.546 44.2333 328.08 40.2 328.08 36C328.08 31.3333 327.313 26.9667 325.78 22.9C324.246 18.7667 322.08 15.1667 319.28 12.1C316.546 9.03333 313.213 6.6 309.28 4.8C305.346 3 300.98 2.1 296.18 2.1H287.68ZM347.04 10.8C347.04 9.46666 346.873 8.16666 346.54 6.9C346.207 5.56666 345.673 4.4 344.94 3.4C344.273 2.4 343.373 1.59999 342.24 0.999994C341.173 0.333328 339.873 -4.76837e-06 338.34 -4.76837e-06H367.74C364.74 0.066661 362.573 1.23333 361.24 3.5C359.973 5.7 359.34 8.13333 359.34 10.8V32.4H393.74V10.8C393.74 9.46666 393.573 8.16666 393.24 6.9C392.907 5.56666 392.373 4.4 391.64 3.4C390.973 2.4 390.073 1.59999 388.94 0.999994C387.873 0.333328 386.573 -4.76837e-06 385.04 -4.76837e-06H414.34C412.873 -4.76837e-06 411.607 0.333328 410.54 0.999994C409.473 1.66666 408.607 2.5 407.94 3.5C407.273 4.5 406.773 5.63333 406.44 6.9C406.173 8.16666 406.04 9.46666 406.04 10.8V59.3C406.04 60.5667 406.173 61.8667 406.44 63.2C406.773 64.4667 407.273 65.6 407.94 66.6C408.607 67.6 409.473 68.4333 410.54 69.1C411.607 69.7 412.873 70 414.34 70H414.64H385.64H385.04H385.64C387.107 69.9333 388.34 69.6 389.34 69C390.407 68.3333 391.24 67.5 391.84 66.5C392.507 65.5 392.973 64.3667 393.24 63.1C393.573 61.8333 393.74 60.5667 393.74 59.3V34.5H359.34V59.3C359.34 61.9667 359.973 64.4 361.24 66.6C362.573 68.8 364.74 69.9333 367.74 70H368.04H338.94H338.34H338.94C340.407 69.9333 341.64 69.6 342.64 69C343.707 68.3333 344.54 67.5 345.14 66.5C345.807 65.5 346.273 64.3667 346.54 63.1C346.873 61.8333 347.04 60.5667 347.04 59.3V10.8Z" fill="#FDBE6D"/>
</svg>
