<svg width="1088" height="73" viewBox="0 0 1088 73" fill="none" xmlns="http://www.w3.org/2000/svg">
<path d="M1.02236 70C2.3557 70 3.52236 69.7 4.52236 69.1C5.58903 68.4333 6.52236 67.6333 7.32236 66.7C8.18903 65.7667 8.92236 64.7333 9.52236 63.6C10.1224 62.4667 10.6224 61.3667 11.0224 60.3L34.0224 -4.76837e-06H37.3224L62.3224 60.3C62.7224 61.3 63.2224 62.3667 63.8224 63.5C64.489 64.6333 65.2557 65.7 66.1224 66.7C66.989 67.6333 67.9224 68.4333 68.9224 69.1C69.989 69.7 71.1557 70 72.4224 70H44.2224C45.889 69.9333 47.189 69.4 48.1224 68.4C49.1224 67.4 49.6224 66.0333 49.6224 64.3C49.6224 63.3 49.3557 62 48.8224 60.4C48.3557 58.8 47.7557 57.1667 47.0224 55.5C46.3557 53.7667 45.6557 52.1333 44.9224 50.6C44.2557 49 43.7224 47.7333 43.3224 46.8H18.5224C18.189 47.7333 17.689 49 17.0224 50.6C16.3557 52.1333 15.689 53.7667 15.0224 55.5C14.3557 57.1667 13.7557 58.8 13.2224 60.4C12.7557 61.9333 12.5224 63.2 12.5224 64.2C12.5224 66.0667 13.0557 67.5 14.1224 68.5C15.2557 69.5 16.7224 70 18.5224 70H1.02236ZM19.3224 44.7H42.5224C40.389 39.9 38.3557 35.0333 36.4224 30.1C34.489 25.1667 32.5557 20.2333 30.6224 15.3L19.3224 44.7ZM43.7224 70H44.2224H43.7224ZM0.722363 70H1.02236H0.722363ZM68.9091 -4.76837e-06H93.4091C93.4758 0.866663 93.7424 1.7 94.2091 2.5C94.7424 3.23333 95.2758 3.93333 95.8091 4.6C101.342 11.8667 106.676 19.2 111.809 26.6C116.942 33.9333 122.242 41.2333 127.709 48.5V10.7C127.709 7.96666 127.009 5.5 125.609 3.29999C124.209 1.09999 121.976 -4.76837e-06 118.909 -4.76837e-06H138.309C136.842 -4.76837e-06 135.576 0.333328 134.509 0.999994C133.442 1.59999 132.576 2.4 131.909 3.4C131.242 4.4 130.742 5.53333 130.409 6.8C130.076 8.06666 129.909 9.36666 129.909 10.7V70H126.209L79.8091 7.7V59.3C79.8091 60.6333 79.9757 61.9667 80.3091 63.3C80.6424 64.5667 81.1424 65.7 81.8091 66.7C82.5424 67.7 83.4424 68.5 84.5091 69.1C85.6424 69.7 86.9757 70 88.5091 70H68.9091C70.4424 70 71.7424 69.7 72.8091 69.1C73.8757 68.4333 74.7424 67.6 75.4091 66.6C76.1424 65.6 76.6757 64.4667 77.0091 63.2C77.3424 61.9333 77.5091 60.6333 77.5091 59.3V10.7C77.5091 9.36666 77.3424 8.06666 77.0091 6.8C76.6757 5.53333 76.1424 4.4 75.4091 3.4C74.7424 2.4 73.8757 1.59999 72.8091 0.999994C71.7424 0.333328 70.4424 -4.76837e-06 68.9091 -4.76837e-06ZM134.805 -4.76837e-06H164.505C162.972 -4.76837e-06 161.639 0.333328 160.505 0.999994C159.439 1.59999 158.539 2.4 157.805 3.4C157.139 4.4 156.639 5.56666 156.305 6.9C155.972 8.16666 155.805 9.46666 155.805 10.8V59.3C155.805 62.1 156.605 64.6 158.205 66.8C159.805 68.9333 162.105 70 165.105 70H135.405C136.939 70 138.205 69.7 139.205 69.1C140.272 68.4333 141.105 67.6 141.705 66.6C142.372 65.6 142.839 64.4667 143.105 63.2C143.372 61.8667 143.505 60.5667 143.505 59.3V10.8C143.505 9.46666 143.339 8.16666 143.005 6.9C142.672 5.56666 142.139 4.4 141.405 3.4C140.739 2.4 139.839 1.59999 138.705 0.999994C137.639 0.333328 136.339 -4.76837e-06 134.805 -4.76837e-06ZM162.813 0.999994H198.113C200.646 0.999994 203.113 1.43333 205.513 2.3C207.98 3.1 210.18 4.3 212.113 5.9C214.046 7.43333 215.613 9.3 216.813 11.5C218.013 13.6333 218.613 16.0667 218.613 18.8C218.613 21.2 218.113 23.4333 217.113 25.5C216.18 27.5 214.913 29.2667 213.313 30.8C211.713 32.2667 209.88 33.5 207.813 34.5C205.746 35.4333 203.58 36.0333 201.313 36.3C203.513 36.5 205.28 37.2 206.613 38.4C207.946 39.5333 209.113 41 210.113 42.8C211.113 44.5333 212.08 46.4667 213.013 48.6C213.946 50.7333 215.08 52.8667 216.413 55C217.746 57.1333 219.38 59.1667 221.313 61.1C223.246 62.9667 225.78 64.5333 228.913 65.8C232.18 67.1333 235.513 67.8 238.913 67.8C243.713 67.8 248.213 66.7333 252.413 64.6C256.613 62.4 260.146 59.3667 263.013 55.5C259.746 60.9667 255.646 65.1333 250.713 68C245.846 70.8667 240.213 72.3 233.813 72.3C231.413 72.3 228.913 72.0667 226.313 71.6C223.713 71.1333 221.18 70.4 218.713 69.4C216.313 68.4 214.08 67.1333 212.013 65.6C209.946 64.0667 208.246 62.2333 206.913 60.1C205.513 57.9 204.213 55.4333 203.013 52.7C201.813 49.9667 200.446 47.4 198.913 45C197.446 42.6 195.646 40.6 193.513 39C191.446 37.4 188.78 36.6 185.513 36.6H183.613V59.5C183.613 62.2333 184.28 64.6667 185.613 66.8C186.946 68.9333 189.113 70 192.113 70H162.813C165.813 70 167.98 68.9333 169.313 66.8C170.713 64.6667 171.413 62.2333 171.413 59.5V11.6C171.413 10.2667 171.246 8.96666 170.913 7.7C170.58 6.43333 170.046 5.3 169.313 4.3C168.646 3.3 167.78 2.49999 166.713 1.89999C165.646 1.29999 164.346 0.999994 162.813 0.999994ZM183.613 3.2V34.6H188.013C190.346 34.6 192.58 34.2667 194.713 33.6C196.913 32.8667 198.846 31.8333 200.513 30.5C202.18 29.1667 203.513 27.5333 204.513 25.6C205.513 23.6667 206.013 21.4333 206.013 18.9C206.013 16.3667 205.513 14.1333 204.513 12.2C203.513 10.2667 202.18 8.63333 200.513 7.3C198.846 5.96666 196.913 4.96667 194.713 4.3C192.58 3.56666 190.346 3.2 188.013 3.2H183.613ZM216.113 1.1H238.013C235.746 1.1 234.113 1.9 233.113 3.5C232.113 5.1 231.613 6.9 231.613 8.9V36.5C231.613 41.1 232.946 44.5 235.613 46.7C238.346 48.8333 241.913 49.9 246.313 49.9C250.846 49.9 254.38 48.8667 256.913 46.8C259.513 44.6667 260.813 41.2333 260.813 36.5V8.9C260.813 6.9 260.313 5.1 259.313 3.5C258.313 1.9 256.68 1.1 254.413 1.1H268.813C266.613 1.1 265.013 1.93333 264.013 3.6C263.013 5.2 262.513 6.96666 262.513 8.9V36.5C262.513 39.4333 261.946 41.9667 260.813 44.1C259.746 46.1667 258.28 47.9 256.413 49.3C254.613 50.6333 252.48 51.6333 250.013 52.3C247.613 52.9 245.08 53.2 242.413 53.2C239.68 53.2 237.08 52.9 234.613 52.3C232.213 51.7 230.113 50.7333 228.313 49.4C226.513 48.0667 225.08 46.3333 224.013 44.2C223.013 42.0667 222.513 39.5 222.513 36.5V8.9C222.513 6.9 222.013 5.1 221.013 3.5C220.013 1.9 218.38 1.1 216.113 1.1ZM275.402 59.4V10.7C275.402 7.89999 274.669 5.43333 273.202 3.29999C271.802 1.16666 269.602 0.066661 266.602 -4.76837e-06H303.402C308.402 -4.76837e-06 313.169 0.899996 317.702 2.7C322.235 4.5 326.202 7 329.602 10.2C333.069 13.4 335.802 17.2 337.802 21.6C339.802 25.9333 340.802 30.7 340.802 35.9C340.802 40.5667 339.935 44.9667 338.202 49.1C336.535 53.2333 334.202 56.8667 331.202 60C328.269 63.0667 324.769 65.5 320.702 67.3C316.635 69.1 312.235 70 307.502 70H266.602C269.602 69.9333 271.802 68.8667 273.202 66.8C274.669 64.6667 275.402 62.2 275.402 59.4ZM287.602 2.1V56.4C287.602 60.6667 288.869 63.6333 291.402 65.3C293.935 66.9667 297.169 67.8 301.102 67.8C305.702 67.8 309.702 66.9333 313.102 65.2C316.502 63.4667 319.302 61.1667 321.502 58.3C323.702 55.3667 325.335 51.9667 326.402 48.1C327.469 44.2333 328.002 40.2 328.002 36C328.002 31.3333 327.235 26.9667 325.702 22.9C324.169 18.7667 322.002 15.1667 319.202 12.1C316.469 9.03333 313.135 6.6 309.202 4.8C305.269 3 300.902 2.1 296.102 2.1H287.602ZM346.962 10.8C346.962 9.46666 346.796 8.16666 346.462 6.9C346.129 5.56666 345.596 4.4 344.862 3.4C344.196 2.4 343.296 1.59999 342.162 0.999994C341.096 0.333328 339.796 -4.76837e-06 338.262 -4.76837e-06H367.662C364.662 0.066661 362.496 1.23333 361.162 3.5C359.896 5.7 359.262 8.13333 359.262 10.8V32.4H393.662V10.8C393.662 9.46666 393.496 8.16666 393.162 6.9C392.829 5.56666 392.296 4.4 391.562 3.4C390.896 2.4 389.996 1.59999 388.862 0.999994C387.796 0.333328 386.496 -4.76837e-06 384.962 -4.76837e-06H414.262C412.796 -4.76837e-06 411.529 0.333328 410.462 0.999994C409.396 1.66666 408.529 2.5 407.862 3.5C407.196 4.5 406.696 5.63333 406.362 6.9C406.096 8.16666 405.962 9.46666 405.962 10.8V59.3C405.962 60.5667 406.096 61.8667 406.362 63.2C406.696 64.4667 407.196 65.6 407.862 66.6C408.529 67.6 409.396 68.4333 410.462 69.1C411.529 69.7 412.796 70 414.262 70H414.562H385.562H384.962H385.562C387.029 69.9333 388.262 69.6 389.262 69C390.329 68.3333 391.162 67.5 391.762 66.5C392.429 65.5 392.896 64.3667 393.162 63.1C393.496 61.8333 393.662 60.5667 393.662 59.3V34.5H359.262V59.3C359.262 61.9667 359.896 64.4 361.162 66.6C362.496 68.8 364.662 69.9333 367.662 70H367.962H338.862H338.262H338.862C340.329 69.9333 341.562 69.6 342.562 69C343.629 68.3333 344.462 67.5 345.062 66.5C345.729 65.5 346.196 64.3667 346.462 63.1C346.796 61.8333 346.962 60.5667 346.962 59.3V10.8ZM455.129 59.4V10.7C455.129 7.89999 454.395 5.43333 452.929 3.29999C451.529 1.16666 449.329 0.066661 446.329 -4.76837e-06H483.129C488.129 -4.76837e-06 492.895 0.899996 497.429 2.7C501.962 4.5 505.929 7 509.329 10.2C512.795 13.4 515.529 17.2 517.529 21.6C519.529 25.9333 520.529 30.7 520.529 35.9C520.529 40.5667 519.662 44.9667 517.929 49.1C516.262 53.2333 513.929 56.8667 510.929 60C507.995 63.0667 504.495 65.5 500.429 67.3C496.362 69.1 491.962 70 487.229 70H446.329C449.329 69.9333 451.529 68.8667 452.929 66.8C454.395 64.6667 455.129 62.2 455.129 59.4ZM467.329 2.1V56.4C467.329 60.6667 468.595 63.6333 471.129 65.3C473.662 66.9667 476.895 67.8 480.829 67.8C485.429 67.8 489.429 66.9333 492.829 65.2C496.229 63.4667 499.029 61.1667 501.229 58.3C503.429 55.3667 505.062 51.9667 506.129 48.1C507.195 44.2333 507.729 40.2 507.729 36C507.729 31.3333 506.962 26.9667 505.429 22.9C503.895 18.7667 501.729 15.1667 498.929 12.1C496.195 9.03333 492.862 6.6 488.929 4.8C484.995 3 480.629 2.1 475.829 2.1H467.329ZM511.511 70C512.844 70 514.011 69.7 515.011 69.1C516.077 68.4333 517.011 67.6333 517.811 66.7C518.677 65.7667 519.411 64.7333 520.011 63.6C520.611 62.4667 521.111 61.3667 521.511 60.3L544.511 -4.76837e-06H547.811L572.811 60.3C573.211 61.3 573.711 62.3667 574.311 63.5C574.977 64.6333 575.744 65.7 576.611 66.7C577.477 67.6333 578.411 68.4333 579.411 69.1C580.477 69.7 581.644 70 582.911 70H554.711C556.377 69.9333 557.677 69.4 558.611 68.4C559.611 67.4 560.111 66.0333 560.111 64.3C560.111 63.3 559.844 62 559.311 60.4C558.844 58.8 558.244 57.1667 557.511 55.5C556.844 53.7667 556.144 52.1333 555.411 50.6C554.744 49 554.211 47.7333 553.811 46.8H529.011C528.677 47.7333 528.177 49 527.511 50.6C526.844 52.1333 526.177 53.7667 525.511 55.5C524.844 57.1667 524.244 58.8 523.711 60.4C523.244 61.9333 523.011 63.2 523.011 64.2C523.011 66.0667 523.544 67.5 524.611 68.5C525.744 69.5 527.211 70 529.011 70H511.511ZM529.811 44.7H553.011C550.877 39.9 548.844 35.0333 546.911 30.1C544.977 25.1667 543.044 20.2333 541.111 15.3L529.811 44.7ZM554.211 70H554.711H554.211ZM511.211 70H511.511H511.211ZM566.225 -4.76837e-06H595.125C593.658 -4.76837e-06 592.391 0.366663 591.325 1.1C590.325 1.83333 589.825 3 589.825 4.6C589.825 5.73333 590.058 6.83333 590.525 7.89999C590.991 8.96666 591.525 9.96666 592.125 10.9L605.125 31.3L619.525 10.8C620.258 9.86667 620.891 8.8 621.425 7.6C621.958 6.4 622.225 5.2 622.225 4C622.225 2.6 621.791 1.59999 620.925 0.999994C620.125 0.333328 619.058 -4.76837e-06 617.725 -4.76837e-06H635.325C633.925 -4.76837e-06 632.558 0.399996 631.225 1.2C629.958 1.93333 628.758 2.86666 627.625 4C626.558 5.06666 625.558 6.23333 624.625 7.5C623.691 8.76667 622.858 9.9 622.125 10.9L608.225 31.2C608.025 31.5333 607.825 31.9 607.625 32.3C607.425 32.6333 607.258 32.9667 607.125 33.3C606.991 33.7667 606.891 34.4667 606.825 35.4C606.825 36.2667 606.825 36.9667 606.825 37.5V59.4C606.825 62.2 607.558 64.6667 609.025 66.8C610.491 68.9333 612.725 70 615.725 70H585.925C588.991 70 591.225 68.9333 592.625 66.8C594.025 64.6667 594.725 62.2 594.725 59.4V47.2C594.725 45.2 594.691 43.6 594.625 42.4C594.558 41.1333 594.358 40 594.025 39C593.758 38 593.325 37 592.725 36C592.191 34.9333 591.425 33.5667 590.425 31.9L577.525 10.7C576.991 9.83333 576.325 8.8 575.525 7.6C574.725 6.33333 573.825 5.16666 572.825 4.1C571.825 2.96666 570.758 2 569.625 1.2C568.558 0.399996 567.425 -4.76837e-06 566.225 -4.76837e-06ZM619.186 70C620.52 70 621.686 69.7 622.686 69.1C623.753 68.4333 624.686 67.6333 625.486 66.7C626.353 65.7667 627.086 64.7333 627.686 63.6C628.286 62.4667 628.786 61.3667 629.186 60.3L652.186 -4.76837e-06H655.486L680.486 60.3C680.886 61.3 681.386 62.3667 681.986 63.5C682.653 64.6333 683.42 65.7 684.286 66.7C685.153 67.6333 686.086 68.4333 687.086 69.1C688.153 69.7 689.32 70 690.586 70H662.386C664.053 69.9333 665.353 69.4 666.286 68.4C667.286 67.4 667.786 66.0333 667.786 64.3C667.786 63.3 667.52 62 666.986 60.4C666.52 58.8 665.92 57.1667 665.186 55.5C664.52 53.7667 663.82 52.1333 663.086 50.6C662.42 49 661.886 47.7333 661.486 46.8H636.686C636.353 47.7333 635.853 49 635.186 50.6C634.52 52.1333 633.853 53.7667 633.186 55.5C632.52 57.1667 631.92 58.8 631.386 60.4C630.92 61.9333 630.686 63.2 630.686 64.2C630.686 66.0667 631.22 67.5 632.286 68.5C633.42 69.5 634.886 70 636.686 70H619.186ZM637.486 44.7H660.686C658.553 39.9 656.52 35.0333 654.586 30.1C652.653 25.1667 650.72 20.2333 648.786 15.3L637.486 44.7ZM661.886 70H662.386H661.886ZM618.886 70H619.186H618.886ZM687.073 -4.76837e-06H711.573C711.64 0.866663 711.906 1.7 712.373 2.5C712.906 3.23333 713.44 3.93333 713.973 4.6C719.506 11.8667 724.84 19.2 729.973 26.6C735.106 33.9333 740.406 41.2333 745.873 48.5V10.7C745.873 7.96666 745.173 5.5 743.773 3.29999C742.373 1.09999 740.14 -4.76837e-06 737.073 -4.76837e-06H756.473C755.006 -4.76837e-06 753.74 0.333328 752.673 0.999994C751.606 1.59999 750.74 2.4 750.073 3.4C749.406 4.4 748.906 5.53333 748.573 6.8C748.24 8.06666 748.073 9.36666 748.073 10.7V70H744.373L697.973 7.7V59.3C697.973 60.6333 698.14 61.9667 698.473 63.3C698.806 64.5667 699.306 65.7 699.973 66.7C700.706 67.7 701.606 68.5 702.673 69.1C703.806 69.7 705.14 70 706.673 70H687.073C688.606 70 689.906 69.7 690.973 69.1C692.04 68.4333 692.906 67.6 693.573 66.6C694.306 65.6 694.84 64.4667 695.173 63.2C695.506 61.9333 695.673 60.6333 695.673 59.3V10.7C695.673 9.36666 695.506 8.06666 695.173 6.8C694.84 5.53333 694.306 4.4 693.573 3.4C692.906 2.4 692.04 1.59999 690.973 0.999994C689.906 0.333328 688.606 -4.76837e-06 687.073 -4.76837e-06ZM751.569 70C752.903 70 754.069 69.7 755.069 69.1C756.136 68.4333 757.069 67.6333 757.869 66.7C758.736 65.7667 759.469 64.7333 760.069 63.6C760.669 62.4667 761.169 61.3667 761.569 60.3L784.569 -4.76837e-06H787.869L812.869 60.3C813.269 61.3 813.769 62.3667 814.369 63.5C815.036 64.6333 815.803 65.7 816.669 66.7C817.536 67.6333 818.469 68.4333 819.469 69.1C820.536 69.7 821.703 70 822.969 70H794.769C796.436 69.9333 797.736 69.4 798.669 68.4C799.669 67.4 800.169 66.0333 800.169 64.3C800.169 63.3 799.903 62 799.369 60.4C798.903 58.8 798.303 57.1667 797.569 55.5C796.903 53.7667 796.203 52.1333 795.469 50.6C794.803 49 794.269 47.7333 793.869 46.8H769.069C768.736 47.7333 768.236 49 767.569 50.6C766.903 52.1333 766.236 53.7667 765.569 55.5C764.903 57.1667 764.303 58.8 763.769 60.4C763.303 61.9333 763.069 63.2 763.069 64.2C763.069 66.0667 763.603 67.5 764.669 68.5C765.803 69.5 767.269 70 769.069 70H751.569ZM769.869 44.7H793.069C790.936 39.9 788.903 35.0333 786.969 30.1C785.036 25.1667 783.103 20.2333 781.169 15.3L769.869 44.7ZM794.269 70H794.769H794.269ZM751.269 70H751.569H751.269ZM819.456 -4.76837e-06H843.956C844.023 0.866663 844.289 1.7 844.756 2.5C845.289 3.23333 845.823 3.93333 846.356 4.6C851.889 11.8667 857.223 19.2 862.356 26.6C867.489 33.9333 872.789 41.2333 878.256 48.5V10.7C878.256 7.96666 877.556 5.5 876.156 3.29999C874.756 1.09999 872.523 -4.76837e-06 869.456 -4.76837e-06H888.856C887.389 -4.76837e-06 886.123 0.333328 885.056 0.999994C883.989 1.59999 883.123 2.4 882.456 3.4C881.789 4.4 881.289 5.53333 880.956 6.8C880.623 8.06666 880.456 9.36666 880.456 10.7V70H876.756L830.356 7.7V59.3C830.356 60.6333 830.523 61.9667 830.856 63.3C831.189 64.5667 831.689 65.7 832.356 66.7C833.089 67.7 833.989 68.5 835.056 69.1C836.189 69.7 837.523 70 839.056 70H819.456C820.989 70 822.289 69.7 823.356 69.1C824.423 68.4333 825.289 67.6 825.956 66.6C826.689 65.6 827.223 64.4667 827.556 63.2C827.889 61.9333 828.056 60.6333 828.056 59.3V10.7C828.056 9.36666 827.889 8.06666 827.556 6.8C827.223 5.53333 826.689 4.4 825.956 3.4C825.289 2.4 824.423 1.59999 823.356 0.999994C822.289 0.333328 820.989 -4.76837e-06 819.456 -4.76837e-06ZM894.152 59.4V10.7C894.152 7.89999 893.419 5.43333 891.952 3.29999C890.552 1.16666 888.352 0.066661 885.352 -4.76837e-06H922.152C927.152 -4.76837e-06 931.919 0.899996 936.452 2.7C940.985 4.5 944.952 7 948.352 10.2C951.819 13.4 954.552 17.2 956.552 21.6C958.552 25.9333 959.552 30.7 959.552 35.9C959.552 40.5667 958.685 44.9667 956.952 49.1C955.285 53.2333 952.952 56.8667 949.952 60C947.019 63.0667 943.519 65.5 939.452 67.3C935.385 69.1 930.985 70 926.252 70H885.352C888.352 69.9333 890.552 68.8667 891.952 66.8C893.419 64.6667 894.152 62.2 894.152 59.4ZM906.352 2.1V56.4C906.352 60.6667 907.619 63.6333 910.152 65.3C912.685 66.9667 915.919 67.8 919.852 67.8C924.452 67.8 928.452 66.9333 931.852 65.2C935.252 63.4667 938.052 61.1667 940.252 58.3C942.452 55.3667 944.085 51.9667 945.152 48.1C946.219 44.2333 946.752 40.2 946.752 36C946.752 31.3333 945.985 26.9667 944.452 22.9C942.919 18.7667 940.752 15.1667 937.952 12.1C935.219 9.03333 931.885 6.6 927.952 4.8C924.019 3 919.652 2.1 914.852 2.1H906.352ZM950.534 70C951.867 70 953.034 69.7 954.034 69.1C955.101 68.4333 956.034 67.6333 956.834 66.7C957.701 65.7667 958.434 64.7333 959.034 63.6C959.634 62.4667 960.134 61.3667 960.534 60.3L983.534 -4.76837e-06H986.834L1011.83 60.3C1012.23 61.3 1012.73 62.3667 1013.33 63.5C1014 64.6333 1014.77 65.7 1015.63 66.7C1016.5 67.6333 1017.43 68.4333 1018.43 69.1C1019.5 69.7 1020.67 70 1021.93 70H993.734C995.401 69.9333 996.701 69.4 997.634 68.4C998.634 67.4 999.134 66.0333 999.134 64.3C999.134 63.3 998.867 62 998.334 60.4C997.867 58.8 997.267 57.1667 996.534 55.5C995.867 53.7667 995.167 52.1333 994.434 50.6C993.767 49 993.234 47.7333 992.834 46.8H968.034C967.701 47.7333 967.201 49 966.534 50.6C965.867 52.1333 965.201 53.7667 964.534 55.5C963.867 57.1667 963.267 58.8 962.734 60.4C962.267 61.9333 962.034 63.2 962.034 64.2C962.034 66.0667 962.567 67.5 963.634 68.5C964.767 69.5 966.234 70 968.034 70H950.534ZM968.834 44.7H992.034C989.901 39.9 987.867 35.0333 985.934 30.1C984.001 25.1667 982.067 20.2333 980.134 15.3L968.834 44.7ZM993.234 70H993.734H993.234ZM950.234 70H950.534H950.234ZM1018.42 -4.76837e-06H1042.92C1042.99 0.866663 1043.25 1.7 1043.72 2.5C1044.25 3.23333 1044.79 3.93333 1045.32 4.6C1050.85 11.8667 1056.19 19.2 1061.32 26.6C1066.45 33.9333 1071.75 41.2333 1077.22 48.5V10.7C1077.22 7.96666 1076.52 5.5 1075.12 3.29999C1073.72 1.09999 1071.49 -4.76837e-06 1068.42 -4.76837e-06H1087.82C1086.35 -4.76837e-06 1085.09 0.333328 1084.02 0.999994C1082.95 1.59999 1082.09 2.4 1081.42 3.4C1080.75 4.4 1080.25 5.53333 1079.92 6.8C1079.59 8.06666 1079.42 9.36666 1079.42 10.7V70H1075.72L1029.32 7.7V59.3C1029.32 60.6333 1029.49 61.9667 1029.82 63.3C1030.15 64.5667 1030.65 65.7 1031.32 66.7C1032.05 67.7 1032.95 68.5 1034.02 69.1C1035.15 69.7 1036.49 70 1038.02 70H1018.42C1019.95 70 1021.25 69.7 1022.32 69.1C1023.39 68.4333 1024.25 67.6 1024.92 66.6C1025.65 65.6 1026.19 64.4667 1026.52 63.2C1026.85 61.9333 1027.02 60.6333 1027.02 59.3V10.7C1027.02 9.36666 1026.85 8.06666 1026.52 6.8C1026.19 5.53333 1025.65 4.4 1024.92 3.4C1024.25 2.4 1023.39 1.59999 1022.32 0.999994C1021.25 0.333328 1019.95 -4.76837e-06 1018.42 -4.76837e-06Z" fill="#FDBE6D"/>
</svg>
