<svg width="560" height="38" viewBox="0 0 560 38" fill="none" xmlns="http://www.w3.org/2000/svg">
<path d="M1.05134 36C1.73589 36 2.33487 35.846 2.84828 35.5379C3.39592 35.1957 3.8751 34.7849 4.28583 34.3057C4.73079 33.8266 5.10729 33.296 5.41534 32.7142C5.72338 32.1323 5.98009 31.5675 6.18545 31.0199L17.9939 0.0612044H19.6882L32.5235 31.0199C32.7288 31.5333 32.9855 32.081 33.2936 32.6628C33.6358 33.2447 34.0295 33.7923 34.4744 34.3057C34.9194 34.7849 35.3986 35.1957 35.912 35.5379C36.4596 35.846 37.0586 36 37.7089 36H23.2307C24.0864 35.9658 24.7538 35.692 25.233 35.1785C25.7464 34.6651 26.0031 33.9635 26.0031 33.0736C26.0031 32.5601 25.8662 31.8927 25.5924 31.0713C25.3528 30.2498 25.0448 29.4112 24.6683 28.5555C24.326 27.6656 23.9666 26.8271 23.5901 26.0398C23.2478 25.2184 22.974 24.568 22.7686 24.0889H10.036C9.8649 24.568 9.6082 25.2184 9.26592 26.0398C8.92365 26.8271 8.58137 27.6656 8.2391 28.5555C7.89683 29.4112 7.58878 30.2498 7.31496 31.0713C7.07537 31.8585 6.95557 32.5088 6.95557 33.0222C6.95557 33.9806 7.22939 34.7165 7.77703 35.2299C8.3589 35.7433 9.1119 36 10.036 36H1.05134ZM10.4468 23.0107H22.3579C21.2626 20.5463 20.2187 18.0477 19.2261 15.5149C18.2335 12.9821 17.2409 10.4492 16.2483 7.9164L10.4468 23.0107ZM22.974 36H23.2307H22.974ZM0.897318 36H1.05134H0.897318ZM35.9052 0.0612044H48.4837C48.518 0.506161 48.6549 0.934005 48.8945 1.34473C49.1683 1.72124 49.4421 2.08062 49.7159 2.4229C52.5568 6.15369 55.295 9.9187 57.9305 13.7179C60.566 17.483 63.2871 21.2309 66.0937 24.9617V5.55471C66.0937 4.15138 65.7344 2.88497 65.0156 1.75546C64.2968 0.625957 63.1502 0.0612044 61.5757 0.0612044H71.5359C70.7829 0.0612044 70.1326 0.232341 69.5849 0.574615C69.0373 0.882662 68.5923 1.29339 68.2501 1.8068C67.9078 2.32022 67.6511 2.90208 67.48 3.5524C67.3088 4.20272 67.2232 4.87016 67.2232 5.55471V36H65.3236L41.5013 4.01447V30.5065C41.5013 31.191 41.5869 31.8756 41.758 32.5601C41.9292 33.2105 42.1859 33.7923 42.5282 34.3057C42.9047 34.8192 43.3667 35.2299 43.9144 35.5379C44.4962 35.846 45.1808 36 45.968 36H35.9052C36.6924 36 37.3598 35.846 37.9075 35.5379C38.4551 35.1957 38.9001 34.7678 39.2423 34.2544C39.6188 33.741 39.8926 33.1591 40.0638 32.5088C40.2349 31.8585 40.3205 31.191 40.3205 30.5065V5.55471C40.3205 4.87016 40.2349 4.20272 40.0638 3.5524C39.8926 2.90208 39.6188 2.32022 39.2423 1.8068C38.9001 1.29339 38.4551 0.882662 37.9075 0.574615C37.3598 0.232341 36.6924 0.0612044 35.9052 0.0612044ZM69.737 0.0612044H84.9853C84.198 0.0612044 83.5135 0.232341 82.9316 0.574615C82.384 0.882662 81.9219 1.29339 81.5454 1.8068C81.2031 2.32022 80.9464 2.9192 80.7753 3.60374C80.6042 4.25406 80.5186 4.9215 80.5186 5.60605V30.5065C80.5186 31.9441 80.9293 33.2276 81.7508 34.3571C82.5722 35.4524 83.7531 36 85.2933 36H70.045C70.8322 36 71.4826 35.846 71.996 35.5379C72.5436 35.1957 72.9714 34.7678 73.2795 34.2544C73.6218 33.741 73.8614 33.1591 73.9983 32.5088C74.1352 31.8243 74.2036 31.1568 74.2036 30.5065V5.60605C74.2036 4.9215 74.1181 4.25406 73.9469 3.60374C73.7758 2.9192 73.502 2.32022 73.1255 1.8068C72.7832 1.29339 72.3211 0.882662 71.7393 0.574615C71.1916 0.232341 70.5242 0.0612044 69.737 0.0612044ZM84.1165 0.574615H102.24C103.541 0.574615 104.807 0.797094 106.039 1.24205C107.306 1.65278 108.435 2.26887 109.428 3.09033C110.42 3.87756 111.225 4.83593 111.841 5.96544C112.457 7.06071 112.765 8.31001 112.765 9.71334C112.765 10.9455 112.508 12.0921 111.995 13.1532C111.516 14.18 110.865 15.087 110.044 15.8743C109.222 16.6273 108.281 17.2605 107.22 17.7739C106.159 18.2531 105.047 18.5611 103.883 18.698C105.012 18.8007 105.919 19.1601 106.604 19.7762C107.288 20.3581 107.887 21.1111 108.401 22.0352C108.914 22.9251 109.411 23.9177 109.89 25.013C110.369 26.1083 110.951 27.2036 111.635 28.2988C112.32 29.3941 113.158 30.438 114.151 31.4306C115.144 32.389 116.444 33.1934 118.053 33.8437C119.73 34.5282 121.441 34.8705 123.187 34.8705C125.651 34.8705 127.962 34.3229 130.118 33.2276C132.274 32.0981 134.089 30.5407 135.56 28.5555C133.883 31.3622 131.778 33.5014 129.245 34.9732C126.747 36.445 123.855 37.1808 120.569 37.1808C119.336 37.1808 118.053 37.0611 116.718 36.8215C115.383 36.5819 114.083 36.2054 112.816 35.692C111.584 35.1785 110.437 34.5282 109.376 33.741C108.315 32.9538 107.442 32.0125 106.758 30.9172C106.039 29.7877 105.372 28.5213 104.756 27.118C104.14 25.7147 103.438 24.3969 102.651 23.1647C101.898 21.9325 100.973 20.9057 99.8782 20.0842C98.8172 19.2628 97.4481 18.8521 95.7709 18.8521H94.7954V30.6092C94.7954 32.0125 95.1377 33.2618 95.8223 34.3571C96.5068 35.4524 97.6192 36 99.1594 36H84.1165C85.6567 36 86.7691 35.4524 87.4537 34.3571C88.1724 33.2618 88.5318 32.0125 88.5318 30.6092V6.01678C88.5318 5.33223 88.4462 4.66479 88.2751 4.01447C88.104 3.36415 87.8302 2.78229 87.4537 2.26888C87.1114 1.75546 86.6664 1.34473 86.1188 1.03669C85.5711 0.728639 84.9037 0.574615 84.1165 0.574615ZM94.7954 1.70412V17.8252H97.0544C98.2524 17.8252 99.399 17.6541 100.494 17.3118C101.624 16.9353 102.616 16.4048 103.472 15.7203C104.328 15.0357 105.012 14.1971 105.526 13.2045C106.039 12.2119 106.296 11.0653 106.296 9.76468C106.296 8.46404 106.039 7.31742 105.526 6.32482C105.012 5.33223 104.328 4.49366 103.472 3.80911C102.616 3.12456 101.624 2.61115 100.494 2.26888C99.399 1.89237 98.2524 1.70412 97.0544 1.70412H94.7954ZM111.481 0.625959H122.725C121.561 0.625959 120.723 1.03669 120.209 1.85815C119.696 2.6796 119.439 3.60374 119.439 4.63057V18.8007C119.439 21.1624 120.124 22.908 121.493 24.0375C122.896 25.1328 124.727 25.6804 126.986 25.6804C129.314 25.6804 131.128 25.1499 132.428 24.0889C133.763 22.9936 134.431 21.2309 134.431 18.8007V4.63057C134.431 3.60374 134.174 2.6796 133.661 1.85815C133.147 1.03669 132.309 0.625959 131.145 0.625959H138.538C137.409 0.625959 136.587 1.0538 136.074 1.90949C135.56 2.73094 135.304 3.63797 135.304 4.63057V18.8007C135.304 20.3067 135.013 21.6074 134.431 22.7026C133.883 23.7637 133.13 24.6536 132.172 25.3724C131.248 26.0569 130.152 26.5703 128.886 26.9126C127.654 27.2207 126.353 27.3747 124.984 27.3747C123.581 27.3747 122.246 27.2207 120.979 26.9126C119.747 26.6046 118.669 26.1083 117.745 25.4237C116.821 24.7392 116.085 23.8493 115.537 22.754C115.024 21.6587 114.767 20.341 114.767 18.8007V4.63057C114.767 3.60374 114.51 2.6796 113.997 1.85815C113.484 1.03669 112.645 0.625959 111.481 0.625959ZM141.921 30.5578V5.55471C141.921 4.11715 141.544 2.85074 140.791 1.75546C140.073 0.660184 138.943 0.0954314 137.403 0.0612044H156.296C158.864 0.0612044 161.311 0.523275 163.638 1.44742C165.966 2.37156 168.002 3.65508 169.748 5.298C171.528 6.94092 172.931 8.89188 173.958 11.1509C174.985 13.3757 175.498 15.8229 175.498 18.4927C175.498 20.8886 175.053 23.1476 174.163 25.2697C173.308 27.3918 172.11 29.2572 170.569 30.8659C169.063 32.4403 167.266 33.6896 165.179 34.6138C163.091 35.5379 160.832 36 158.401 36H137.403C138.943 35.9658 140.073 35.4181 140.791 34.3571C141.544 33.2618 141.921 31.9954 141.921 30.5578ZM148.185 1.13937V29.0176C148.185 31.2082 148.835 32.7313 150.136 33.587C151.436 34.4427 153.096 34.8705 155.116 34.8705C157.477 34.8705 159.531 34.4255 161.277 33.5356C163.022 32.6457 164.46 31.4649 165.589 29.9931C166.719 28.4871 167.557 26.7415 168.105 24.7563C168.653 22.7711 168.926 20.7003 168.926 18.544C168.926 16.1481 168.533 13.9062 167.746 11.8183C166.958 9.69622 165.846 7.84794 164.408 6.27348C163.005 4.69902 161.294 3.44972 159.274 2.52558C157.255 1.60144 155.013 1.13937 152.549 1.13937H148.185ZM178.661 5.60605C178.661 4.9215 178.575 4.25406 178.404 3.60374C178.233 2.9192 177.959 2.32022 177.583 1.8068C177.24 1.29339 176.778 0.882662 176.196 0.574615C175.649 0.232341 174.981 0.0612044 174.194 0.0612044H189.288C187.748 0.0954314 186.636 0.694412 185.951 1.85815C185.301 2.98765 184.976 4.23695 184.976 5.60605V16.6957H202.637V5.60605C202.637 4.9215 202.552 4.25406 202.38 3.60374C202.209 2.9192 201.935 2.32022 201.559 1.8068C201.217 1.29339 200.755 0.882662 200.173 0.574615C199.625 0.232341 198.958 0.0612044 198.17 0.0612044H213.213C212.46 0.0612044 211.81 0.232341 211.262 0.574615C210.715 0.916891 210.27 1.34473 209.928 1.85815C209.585 2.37156 209.329 2.95342 209.157 3.60374C209.021 4.25406 208.952 4.9215 208.952 5.60605V30.5065C208.952 31.1568 209.021 31.8243 209.157 32.5088C209.329 33.1591 209.585 33.741 209.928 34.2544C210.27 34.7678 210.715 35.1957 211.262 35.5379C211.81 35.846 212.46 36 213.213 36H213.367H198.478H198.17H198.478C199.231 35.9658 199.865 35.7946 200.378 35.4866C200.926 35.1443 201.354 34.7165 201.662 34.2031C202.004 33.6896 202.243 33.1078 202.38 32.4575C202.552 31.8071 202.637 31.1568 202.637 30.5065V17.7739H184.976V30.5065C184.976 31.8756 185.301 33.1249 185.951 34.2544C186.636 35.3839 187.748 35.9658 189.288 36H189.442H174.502H174.194H174.502C175.255 35.9658 175.888 35.7946 176.402 35.4866C176.949 35.1443 177.377 34.7165 177.685 34.2031C178.028 33.6896 178.267 33.1078 178.404 32.4575C178.575 31.8071 178.661 31.1568 178.661 30.5065V5.60605ZM234.195 30.5578V5.55471C234.195 4.11715 233.818 2.85074 233.065 1.75546C232.346 0.660184 231.217 0.0954314 229.677 0.0612044H248.57C251.137 0.0612044 253.584 0.523275 255.912 1.44742C258.239 2.37156 260.276 3.65508 262.022 5.298C263.801 6.94092 265.205 8.89188 266.232 11.1509C267.258 13.3757 267.772 15.8229 267.772 18.4927C267.772 20.8886 267.327 23.1476 266.437 25.2697C265.581 27.3918 264.383 29.2572 262.843 30.8659C261.337 32.4403 259.54 33.6896 257.452 34.6138C255.364 35.5379 253.105 36 250.675 36H229.677C231.217 35.9658 232.346 35.4181 233.065 34.3571C233.818 33.2618 234.195 31.9954 234.195 30.5578ZM240.458 1.13937V29.0176C240.458 31.2082 241.109 32.7313 242.409 33.587C243.71 34.4427 245.37 34.8705 247.389 34.8705C249.751 34.8705 251.805 34.4255 253.55 33.5356C255.296 32.6457 256.733 31.4649 257.863 29.9931C258.992 28.4871 259.831 26.7415 260.379 24.7563C260.926 22.7711 261.2 20.7003 261.2 18.544C261.2 16.1481 260.806 13.9062 260.019 11.8183C259.232 9.69622 258.12 7.84794 256.682 6.27348C255.279 4.69902 253.567 3.44972 251.548 2.52558C249.529 1.60144 247.287 1.13937 244.822 1.13937H240.458ZM263.142 36C263.826 36 264.425 35.846 264.939 35.5379C265.486 35.1957 265.966 34.7849 266.376 34.3057C266.821 33.8266 267.198 33.296 267.506 32.7142C267.814 32.1323 268.071 31.5675 268.276 31.0199L280.084 0.0612044H281.779L294.614 31.0199C294.819 31.5333 295.076 32.081 295.384 32.6628C295.726 33.2447 296.12 33.7923 296.565 34.3057C297.01 34.7849 297.489 35.1957 298.002 35.5379C298.55 35.846 299.149 36 299.799 36H285.321C286.177 35.9658 286.844 35.692 287.323 35.1785C287.837 34.6651 288.094 33.9635 288.094 33.0736C288.094 32.5601 287.957 31.8927 287.683 31.0713C287.443 30.2498 287.135 29.4112 286.759 28.5555C286.416 27.6656 286.057 26.8271 285.681 26.0398C285.338 25.2184 285.064 24.568 284.859 24.0889H272.126C271.955 24.568 271.699 25.2184 271.356 26.0398C271.014 26.8271 270.672 27.6656 270.33 28.5555C269.987 29.4112 269.679 30.2498 269.405 31.0713C269.166 31.8585 269.046 32.5088 269.046 33.0222C269.046 33.9806 269.32 34.7165 269.867 35.2299C270.449 35.7433 271.202 36 272.126 36H263.142ZM272.537 23.0107H284.448C283.353 20.5463 282.309 18.0477 281.317 15.5149C280.324 12.9821 279.331 10.4492 278.339 7.9164L272.537 23.0107ZM285.064 36H285.321H285.064ZM262.988 36H263.142H262.988ZM291.233 0.0612044H306.07C305.317 0.0612044 304.667 0.249456 304.119 0.625959C303.606 1.00246 303.349 1.60144 303.349 2.4229C303.349 3.00476 303.469 3.56952 303.709 4.11715C303.948 4.66479 304.222 5.17821 304.53 5.65739L311.204 16.131L318.597 5.60605C318.974 5.12686 319.299 4.57923 319.573 3.96313C319.847 3.34704 319.984 2.73094 319.984 2.11485C319.984 1.39607 319.761 0.882662 319.316 0.574615C318.905 0.232341 318.358 0.0612044 317.673 0.0612044H326.709C325.991 0.0612044 325.289 0.266569 324.604 0.677299C323.954 1.0538 323.338 1.53298 322.756 2.11485C322.208 2.66249 321.695 3.26147 321.216 3.91179C320.737 4.56211 320.309 5.14398 319.932 5.65739L312.796 16.0796C312.693 16.2508 312.591 16.439 312.488 16.6444C312.385 16.8155 312.3 16.9867 312.231 17.1578C312.163 17.3974 312.111 17.7568 312.077 18.236C312.077 18.6809 312.077 19.0403 312.077 19.3141V30.5578C312.077 31.9954 312.454 33.2618 313.207 34.3571C313.96 35.4524 315.106 36 316.646 36H301.347C302.921 36 304.068 35.4524 304.787 34.3571C305.505 33.2618 305.865 31.9954 305.865 30.5578V24.2942C305.865 23.2674 305.848 22.4459 305.814 21.8298C305.779 21.1795 305.677 20.5977 305.505 20.0842C305.369 19.5708 305.146 19.0574 304.838 18.544C304.564 17.9964 304.171 17.2947 303.657 16.439L297.034 5.55471C296.76 5.10975 296.418 4.57923 296.007 3.96313C295.597 3.31281 295.135 2.71383 294.621 2.16619C294.108 1.58432 293.56 1.08803 292.978 0.677299C292.431 0.266569 291.849 0.0612044 291.233 0.0612044ZM318.424 36C319.108 36 319.707 35.846 320.221 35.5379C320.768 35.1957 321.248 34.7849 321.658 34.3057C322.103 33.8266 322.48 33.296 322.788 32.7142C323.096 32.1323 323.353 31.5675 323.558 31.0199L335.366 0.0612044H337.061L349.896 31.0199C350.101 31.5333 350.358 32.081 350.666 32.6628C351.008 33.2447 351.402 33.7923 351.847 34.3057C352.292 34.7849 352.771 35.1957 353.284 35.5379C353.832 35.846 354.431 36 355.081 36H340.603C341.459 35.9658 342.126 35.692 342.605 35.1785C343.119 34.6651 343.376 33.9635 343.376 33.0736C343.376 32.5601 343.239 31.8927 342.965 31.0713C342.725 30.2498 342.417 29.4112 342.041 28.5555C341.698 27.6656 341.339 26.8271 340.963 26.0398C340.62 25.2184 340.346 24.568 340.141 24.0889H327.408C327.237 24.568 326.981 25.2184 326.638 26.0398C326.296 26.8271 325.954 27.6656 325.612 28.5555C325.269 29.4112 324.961 30.2498 324.687 31.0713C324.448 31.8585 324.328 32.5088 324.328 33.0222C324.328 33.9806 324.602 34.7165 325.149 35.2299C325.731 35.7433 326.484 36 327.408 36H318.424ZM327.819 23.0107H339.73C338.635 20.5463 337.591 18.0477 336.599 15.5149C335.606 12.9821 334.613 10.4492 333.621 7.9164L327.819 23.0107ZM340.346 36H340.603H340.346ZM318.27 36H318.424H318.27ZM353.278 0.0612044H365.856C365.89 0.506161 366.027 0.934005 366.267 1.34473C366.541 1.72124 366.815 2.08062 367.088 2.4229C369.929 6.15369 372.667 9.9187 375.303 13.7179C377.938 17.483 380.66 21.2309 383.466 24.9617V5.55471C383.466 4.15138 383.107 2.88497 382.388 1.75546C381.669 0.625957 380.523 0.0612044 378.948 0.0612044H388.908C388.155 0.0612044 387.505 0.232341 386.957 0.574615C386.41 0.882662 385.965 1.29339 385.622 1.8068C385.28 2.32022 385.024 2.90208 384.852 3.5524C384.681 4.20272 384.596 4.87016 384.596 5.55471V36H382.696L358.874 4.01447V30.5065C358.874 31.191 358.959 31.8756 359.13 32.5601C359.302 33.2105 359.558 33.7923 359.901 34.3057C360.277 34.8192 360.739 35.2299 361.287 35.5379C361.869 35.846 362.553 36 363.34 36H353.278C354.065 36 354.732 35.846 355.28 35.5379C355.828 35.1957 356.272 34.7678 356.615 34.2544C356.991 33.741 357.265 33.1591 357.436 32.5088C357.607 31.8585 357.693 31.191 357.693 30.5065V5.55471C357.693 4.87016 357.607 4.20272 357.436 3.5524C357.265 2.90208 356.991 2.32022 356.615 1.8068C356.272 1.29339 355.828 0.882662 355.28 0.574615C354.732 0.232341 354.065 0.0612044 353.278 0.0612044ZM386.391 36C387.075 36 387.674 35.846 388.188 35.5379C388.735 35.1957 389.214 34.7849 389.625 34.3057C390.07 33.8266 390.447 33.296 390.755 32.7142C391.063 32.1323 391.319 31.5675 391.525 31.0199L403.333 0.0612044H405.027L417.863 31.0199C418.068 31.5333 418.325 32.081 418.633 32.6628C418.975 33.2447 419.369 33.7923 419.814 34.3057C420.259 34.7849 420.738 35.1957 421.251 35.5379C421.799 35.846 422.398 36 423.048 36H408.57C409.426 35.9658 410.093 35.692 410.572 35.1785C411.086 34.6651 411.342 33.9635 411.342 33.0736C411.342 32.5601 411.205 31.8927 410.932 31.0713C410.692 30.2498 410.384 29.4112 410.008 28.5555C409.665 27.6656 409.306 26.8271 408.929 26.0398C408.587 25.2184 408.313 24.568 408.108 24.0889H395.375C395.204 24.568 394.947 25.2184 394.605 26.0398C394.263 26.8271 393.921 27.6656 393.578 28.5555C393.236 29.4112 392.928 30.2498 392.654 31.0713C392.415 31.8585 392.295 32.5088 392.295 33.0222C392.295 33.9806 392.569 34.7165 393.116 35.2299C393.698 35.7433 394.451 36 395.375 36H386.391ZM395.786 23.0107H407.697C406.602 20.5463 405.558 18.0477 404.565 15.5149C403.573 12.9821 402.58 10.4492 401.588 7.9164L395.786 23.0107ZM408.313 36H408.57H408.313ZM386.237 36H386.391H386.237ZM421.244 0.0612044H433.823C433.857 0.506161 433.994 0.934005 434.234 1.34473C434.508 1.72124 434.781 2.08062 435.055 2.4229C437.896 6.15369 440.634 9.9187 443.27 13.7179C445.905 17.483 448.626 21.2309 451.433 24.9617V5.55471C451.433 4.15138 451.074 2.88497 450.355 1.75546C449.636 0.625957 448.489 0.0612044 446.915 0.0612044H456.875C456.122 0.0612044 455.472 0.232341 454.924 0.574615C454.377 0.882662 453.932 1.29339 453.589 1.8068C453.247 2.32022 452.99 2.90208 452.819 3.5524C452.648 4.20272 452.563 4.87016 452.563 5.55471V36H450.663L426.841 4.01447V30.5065C426.841 31.191 426.926 31.8756 427.097 32.5601C427.268 33.2105 427.525 33.7923 427.867 34.3057C428.244 34.8192 428.706 35.2299 429.254 35.5379C429.836 35.846 430.52 36 431.307 36H421.244C422.032 36 422.699 35.846 423.247 35.5379C423.794 35.1957 424.239 34.7678 424.582 34.2544C424.958 33.741 425.232 33.1591 425.403 32.5088C425.574 31.8585 425.66 31.191 425.66 30.5065V5.55471C425.66 4.87016 425.574 4.20272 425.403 3.5524C425.232 2.90208 424.958 2.32022 424.582 1.8068C424.239 1.29339 423.794 0.882662 423.247 0.574615C422.699 0.232341 422.032 0.0612044 421.244 0.0612044ZM459.594 30.5578V5.55471C459.594 4.11715 459.218 2.85074 458.465 1.75546C457.746 0.660184 456.616 0.0954314 455.076 0.0612044H473.97C476.537 0.0612044 478.984 0.523275 481.312 1.44742C483.639 2.37156 485.676 3.65508 487.421 5.298C489.201 6.94092 490.604 8.89188 491.631 11.1509C492.658 13.3757 493.171 15.8229 493.171 18.4927C493.171 20.8886 492.726 23.1476 491.836 25.2697C490.981 27.3918 489.783 29.2572 488.243 30.8659C486.737 32.4403 484.94 33.6896 482.852 34.6138C480.764 35.5379 478.505 36 476.075 36H455.076C456.616 35.9658 457.746 35.4181 458.465 34.3571C459.218 33.2618 459.594 31.9954 459.594 30.5578ZM465.858 1.13937V29.0176C465.858 31.2082 466.508 32.7313 467.809 33.587C469.109 34.4427 470.769 34.8705 472.789 34.8705C475.151 34.8705 477.204 34.4255 478.95 33.5356C480.695 32.6457 482.133 31.4649 483.262 29.9931C484.392 28.4871 485.231 26.7415 485.778 24.7563C486.326 22.7711 486.6 20.7003 486.6 18.544C486.6 16.1481 486.206 13.9062 485.419 11.8183C484.632 9.69622 483.519 7.84794 482.082 6.27348C480.678 4.69902 478.967 3.44972 476.948 2.52558C474.928 1.60144 472.686 1.13937 470.222 1.13937H465.858ZM488.541 36C489.226 36 489.825 35.846 490.338 35.5379C490.886 35.1957 491.365 34.7849 491.776 34.3057C492.221 33.8266 492.597 33.296 492.905 32.7142C493.213 32.1323 493.47 31.5675 493.676 31.0199L505.484 0.0612044H507.178L520.014 31.0199C520.219 31.5333 520.476 32.081 520.784 32.6628C521.126 33.2447 521.52 33.7923 521.965 34.3057C522.409 34.7849 522.889 35.1957 523.402 35.5379C523.95 35.846 524.549 36 525.199 36H510.721C511.576 35.9658 512.244 35.692 512.723 35.1785C513.237 34.6651 513.493 33.9635 513.493 33.0736C513.493 32.5601 513.356 31.8927 513.082 31.0713C512.843 30.2498 512.535 29.4112 512.158 28.5555C511.816 27.6656 511.457 26.8271 511.08 26.0398C510.738 25.2184 510.464 24.568 510.259 24.0889H497.526C497.355 24.568 497.098 25.2184 496.756 26.0398C496.414 26.8271 496.071 27.6656 495.729 28.5555C495.387 29.4112 495.079 30.2498 494.805 31.0713C494.565 31.8585 494.446 32.5088 494.446 33.0222C494.446 33.9806 494.719 34.7165 495.267 35.2299C495.849 35.7433 496.602 36 497.526 36H488.541ZM497.937 23.0107H509.848C508.753 20.5463 507.709 18.0477 506.716 15.5149C505.724 12.9821 504.731 10.4492 503.738 7.9164L497.937 23.0107ZM510.464 36H510.721H510.464ZM488.387 36H488.541H488.387ZM523.395 0.0612044H535.974C536.008 0.506161 536.145 0.934005 536.385 1.34473C536.658 1.72124 536.932 2.08062 537.206 2.4229C540.047 6.15369 542.785 9.9187 545.421 13.7179C548.056 17.483 550.777 21.2309 553.584 24.9617V5.55471C553.584 4.15138 553.224 2.88497 552.506 1.75546C551.787 0.625957 550.64 0.0612044 549.066 0.0612044H559.026C558.273 0.0612044 557.623 0.232341 557.075 0.574615C556.527 0.882662 556.082 1.29339 555.74 1.8068C555.398 2.32022 555.141 2.90208 554.97 3.5524C554.799 4.20272 554.713 4.87016 554.713 5.55471V36H552.814L528.991 4.01447V30.5065C528.991 31.191 529.077 31.8756 529.248 32.5601C529.419 33.2105 529.676 33.7923 530.018 34.3057C530.395 34.8192 530.857 35.2299 531.404 35.5379C531.986 35.846 532.671 36 533.458 36H523.395C524.182 36 524.85 35.846 525.398 35.5379C525.945 35.1957 526.39 34.7678 526.732 34.2544C527.109 33.741 527.383 33.1591 527.554 32.5088C527.725 31.8585 527.811 31.191 527.811 30.5065V5.55471C527.811 4.87016 527.725 4.20272 527.554 3.5524C527.383 2.90208 527.109 2.32022 526.732 1.8068C526.39 1.29339 525.945 0.882662 525.398 0.574615C524.85 0.232341 524.182 0.0612044 523.395 0.0612044Z" fill="#FDBE6D"/>
</svg>
