<svg width="519" height="135" viewBox="0 0 519 135" fill="none" xmlns="http://www.w3.org/2000/svg">
<path d="M93.6236 57C94.6991 57 95.6402 56.758 96.4469 56.274C97.3073 55.7363 98.0602 55.0909 98.7055 54.3381C99.4046 53.5852 99.9961 52.7517 100.48 51.8375C100.964 50.9233 101.367 50.036 101.69 49.1755L120.243 0.534741H122.905L143.071 49.1755C143.394 49.9822 143.797 50.8426 144.281 51.7568C144.819 52.671 145.437 53.5314 146.136 54.3381C146.835 55.0909 147.588 55.7363 148.395 56.274C149.255 56.758 150.196 57 151.218 57H128.471C129.815 56.9462 130.864 56.516 131.617 55.7094C132.423 54.9027 132.827 53.8003 132.827 52.4021C132.827 51.5955 132.612 50.5468 132.181 49.2562C131.805 47.9656 131.321 46.648 130.729 45.3036C130.192 43.9054 129.627 42.5879 129.035 41.3511C128.498 40.0604 128.067 39.0387 127.745 38.2858H107.74C107.471 39.0387 107.068 40.0604 106.53 41.3511C105.992 42.5879 105.454 43.9054 104.917 45.3036C104.379 46.648 103.895 47.9656 103.465 49.2562C103.088 50.4931 102.9 51.5148 102.9 52.3215C102.9 53.8272 103.33 54.9834 104.191 55.79C105.105 56.5967 106.288 57 107.74 57H93.6236ZM108.385 36.5918H127.099C125.379 32.7199 123.738 28.7943 122.179 24.8148C120.619 20.8353 119.06 16.8559 117.5 12.8764L108.385 36.5918ZM128.067 57H128.471H128.067ZM93.3816 57H93.6236H93.3816ZM148.384 0.534741H168.147C168.201 1.23384 168.416 1.90604 168.792 2.55136C169.223 3.1429 169.653 3.70755 170.083 4.24532C174.546 10.1069 178.849 16.0224 182.989 21.9915C187.13 27.9069 191.405 33.7955 195.815 39.6571V9.16586C195.815 6.96103 195.25 4.9713 194.121 3.19667C192.992 1.42205 191.19 0.534741 188.717 0.534741H204.365C203.182 0.534741 202.161 0.803623 201.3 1.34139C200.44 1.82537 199.741 2.47069 199.203 3.27734C198.665 4.08399 198.262 4.99819 197.993 6.01994C197.724 7.04169 197.59 8.09033 197.59 9.16586V57H194.605L157.177 6.74592V48.3689C157.177 49.4444 157.311 50.5199 157.58 51.5955C157.849 52.6172 158.252 53.5314 158.79 54.3381C159.381 55.1447 160.107 55.79 160.968 56.274C161.882 56.758 162.958 57 164.194 57H148.384C149.621 57 150.67 56.758 151.53 56.274C152.391 55.7363 153.09 55.064 153.627 54.2574C154.219 53.4508 154.649 52.5366 154.918 51.5148C155.187 50.4931 155.321 49.4444 155.321 48.3689V9.16586C155.321 8.09033 155.187 7.04169 154.918 6.01994C154.649 4.99819 154.219 4.08399 153.627 3.27734C153.09 2.47069 152.391 1.82537 151.53 1.34139C150.67 0.803623 149.621 0.534741 148.384 0.534741ZM201.539 0.534741H225.496C224.26 0.534741 223.184 0.803623 222.27 1.34139C221.409 1.82537 220.683 2.47069 220.092 3.27734C219.554 4.08399 219.151 5.02507 218.882 6.1006C218.613 7.12235 218.479 8.171 218.479 9.24653V48.3689C218.479 50.6275 219.124 52.6441 220.415 54.4187C221.705 56.1396 223.56 57 225.98 57H202.023C203.26 57 204.282 56.758 205.088 56.274C205.949 55.7363 206.621 55.064 207.105 54.2574C207.643 53.4508 208.019 52.5366 208.234 51.5148C208.449 50.4393 208.557 49.3906 208.557 48.3689V9.24653C208.557 8.171 208.422 7.12235 208.154 6.1006C207.885 5.02507 207.454 4.08399 206.863 3.27734C206.325 2.47069 205.599 1.82537 204.685 1.34139C203.825 0.803623 202.776 0.534741 201.539 0.534741ZM224.131 1.34139H252.606C254.65 1.34139 256.639 1.69093 258.575 2.39003C260.565 3.03535 262.34 4.00332 263.899 5.29396C265.459 6.53081 266.722 8.03655 267.69 9.81118C268.658 11.532 269.142 13.4949 269.142 15.6997C269.142 17.6356 268.739 19.4372 267.932 21.1042C267.179 22.7175 266.158 24.1426 264.867 25.3795C263.576 26.5625 262.098 27.5574 260.431 28.364C258.763 29.1169 257.016 29.6009 255.187 29.816C256.962 29.9773 258.387 30.542 259.463 31.51C260.538 32.4242 261.479 33.6072 262.286 35.0592C263.092 36.4574 263.872 38.0169 264.625 39.7378C265.378 41.4586 266.292 43.1795 267.368 44.9003C268.443 46.6211 269.761 48.2613 271.32 49.8208C272.88 51.3266 274.923 52.5903 277.451 53.6121C280.086 54.6876 282.775 55.2254 285.517 55.2254C289.389 55.2254 293.019 54.365 296.407 52.6441C299.795 50.8695 302.645 48.4227 304.957 45.3036C302.322 49.7133 299.015 53.0743 295.036 55.3867C291.11 57.6991 286.566 58.8553 281.403 58.8553C279.467 58.8553 277.451 58.6671 275.354 58.2906C273.256 57.9142 271.213 57.3227 269.223 56.516C267.287 55.7094 265.486 54.6876 263.818 53.4508C262.151 52.2139 260.78 50.735 259.705 49.0142C258.575 47.2396 257.527 45.2498 256.559 43.045C255.591 40.8402 254.488 38.7698 253.251 36.8338C252.068 34.8979 250.616 33.2846 248.895 31.994C247.228 30.7033 245.077 30.058 242.442 30.058H240.91V48.5302C240.91 50.735 241.447 52.6979 242.523 54.4187C243.599 56.1396 245.346 57 247.766 57H224.131C226.551 57 228.299 56.1396 229.375 54.4187C230.504 52.6979 231.069 50.735 231.069 48.5302V9.89184C231.069 8.81631 230.934 7.76767 230.665 6.74592C230.396 5.72417 229.966 4.80997 229.375 4.00332C228.837 3.19668 228.138 2.55136 227.277 2.06737C226.417 1.58338 225.368 1.34139 224.131 1.34139ZM240.91 3.11601V28.4447H244.459C246.341 28.4447 248.143 28.1758 249.863 27.6381C251.638 27.0465 253.198 26.213 254.542 25.1375C255.886 24.0619 256.962 22.7444 257.769 21.1849C258.575 19.6254 258.979 17.8239 258.979 15.7804C258.979 13.7369 258.575 11.9353 257.769 10.3758C256.962 8.81631 255.886 7.49879 254.542 6.42326C253.198 5.34773 251.638 4.54109 249.863 4.00332C248.143 3.41178 246.341 3.11601 244.459 3.11601H240.91ZM267.126 1.42206H284.791C282.963 1.42206 281.645 2.06737 280.839 3.35801C280.032 4.64864 279.629 6.1006 279.629 7.7139V29.9773C279.629 33.6879 280.704 36.4305 282.855 38.2051C285.06 39.926 287.937 40.7864 291.486 40.7864C295.143 40.7864 297.993 39.9529 300.037 38.2858C302.134 36.565 303.183 33.7955 303.183 29.9773V7.7139C303.183 6.1006 302.779 4.64864 301.973 3.35801C301.166 2.06737 299.849 1.42206 298.02 1.42206H309.636C307.861 1.42206 306.571 2.09426 305.764 3.43867C304.957 4.7293 304.554 6.15438 304.554 7.7139V29.9773C304.554 32.3435 304.097 34.387 303.183 36.1079C302.322 37.7749 301.139 39.1731 299.634 40.3024C298.182 41.3779 296.461 42.1846 294.471 42.7224C292.535 43.2063 290.492 43.4483 288.341 43.4483C286.136 43.4483 284.038 43.2063 282.049 42.7224C280.113 42.2384 278.419 41.4586 276.967 40.3831C275.515 39.3076 274.359 37.9094 273.498 36.1885C272.692 34.4677 272.288 32.3973 272.288 29.9773V7.7139C272.288 6.1006 271.885 4.64864 271.078 3.35801C270.272 2.06737 268.954 1.42206 267.126 1.42206ZM314.951 48.4495V9.16586C314.951 6.90725 314.359 4.91752 313.176 3.19667C312.047 1.47583 310.272 0.588517 307.853 0.534741H337.537C341.57 0.534741 345.415 1.26072 349.072 2.71269C352.729 4.16465 355.929 6.18127 358.671 8.76254C361.468 11.3438 363.672 14.4091 365.286 17.9583C366.899 21.4538 367.706 25.2988 367.706 29.4934C367.706 33.2577 367.007 36.8069 365.608 40.1411C364.264 43.4752 362.382 46.406 359.962 48.9335C357.596 51.4073 354.772 53.3701 351.492 54.8221C348.212 56.274 344.663 57 340.844 57H307.853C310.272 56.9462 312.047 56.0858 313.176 54.4187C314.359 52.6979 314.951 50.7082 314.951 48.4495ZM324.792 2.2287V46.0296C324.792 49.4713 325.814 51.8644 327.857 53.2088C329.901 54.5532 332.509 55.2254 335.682 55.2254C339.392 55.2254 342.619 54.5263 345.362 53.1281C348.104 51.7299 350.363 49.8746 352.137 47.5622C353.912 45.1961 355.23 42.4535 356.09 39.3344C356.95 36.2154 357.381 32.9619 357.381 29.574C357.381 25.8097 356.762 22.2873 355.525 19.0069C354.288 15.6728 352.541 12.7689 350.282 10.2952C348.077 7.82145 345.388 5.85861 342.216 4.40665C339.043 2.95468 335.521 2.2287 331.649 2.2287H324.792ZM372.675 9.24653C372.675 8.171 372.54 7.12235 372.271 6.1006C372.003 5.02507 371.572 4.08399 370.981 3.27734C370.443 2.47069 369.717 1.82537 368.803 1.34139C367.942 0.803623 366.894 0.534741 365.657 0.534741H389.372C386.952 0.588517 385.205 1.52961 384.129 3.35801C383.107 5.13263 382.597 7.09547 382.597 9.24653V26.6701H410.345V9.24653C410.345 8.171 410.211 7.12235 409.942 6.1006C409.673 5.02507 409.243 4.08399 408.651 3.27734C408.113 2.47069 407.387 1.82537 406.473 1.34139C405.613 0.803623 404.564 0.534741 403.327 0.534741H426.962C425.779 0.534741 424.757 0.803623 423.897 1.34139C423.036 1.87915 422.337 2.55136 421.8 3.35801C421.262 4.16465 420.858 5.07885 420.59 6.1006C420.374 7.12235 420.267 8.171 420.267 9.24653V48.3689C420.267 49.3906 420.374 50.4393 420.59 51.5148C420.858 52.5366 421.262 53.4508 421.8 54.2574C422.337 55.064 423.036 55.7363 423.897 56.274C424.757 56.758 425.779 57 426.962 57H427.204H403.811H403.327H403.811C404.994 56.9462 405.989 56.6773 406.796 56.1934C407.656 55.6556 408.329 54.9834 408.813 54.1767C409.35 53.3701 409.727 52.4559 409.942 51.4341C410.211 50.4124 410.345 49.3906 410.345 48.3689V28.364H382.597V48.3689C382.597 50.5199 383.107 52.4828 384.129 54.2574C385.205 56.032 386.952 56.9462 389.372 57H389.614H366.141H365.657H366.141C367.324 56.9462 368.319 56.6773 369.126 56.1934C369.986 55.6556 370.658 54.9834 371.142 54.1767C371.68 53.3701 372.056 52.4559 372.271 51.4341C372.54 50.4124 372.675 49.3906 372.675 48.3689V9.24653ZM7.97634 126.45V87.1659C7.97634 84.9072 7.3848 82.9175 6.20171 81.1967C5.07241 79.4758 3.29779 78.5885 0.877847 78.5347H30.5624C34.5957 78.5347 38.4407 79.2607 42.0975 80.7127C45.7543 82.1647 48.954 84.1813 51.6966 86.7625C54.493 89.3438 56.6978 92.4091 58.3111 95.9583C59.9244 99.4538 60.731 103.299 60.731 107.493C60.731 111.258 60.0319 114.807 58.6337 118.141C57.2893 121.475 55.4072 124.406 52.9872 126.934C50.6211 129.407 47.7978 131.37 44.5174 132.822C41.2371 134.274 37.6878 135 33.8697 135H0.877847C3.29779 134.946 5.07241 134.086 6.20171 132.419C7.3848 130.698 7.97634 128.708 7.97634 126.45ZM17.8174 80.2287V124.03C17.8174 127.471 18.8392 129.864 20.8827 131.209C22.9262 132.553 25.5343 133.225 28.7072 133.225C32.4177 133.225 35.6443 132.526 38.3869 131.128C41.1295 129.73 43.3881 127.875 45.1627 125.562C46.9374 123.196 48.2549 120.453 49.1153 117.334C49.9757 114.215 50.4059 110.962 50.4059 107.574C50.4059 103.81 49.7875 100.287 48.5507 97.0069C47.3138 93.6728 45.5661 90.7689 43.3075 88.2952C41.1026 85.8215 38.4138 83.8586 35.241 82.4066C32.0682 80.9547 28.5458 80.2287 24.6739 80.2287H17.8174ZM53.4567 135C54.5322 135 55.4733 134.758 56.28 134.274C57.1404 133.736 57.8933 133.091 58.5386 132.338C59.2377 131.585 59.8292 130.752 60.3132 129.837C60.7972 128.923 61.2005 128.036 61.5232 127.176L80.076 78.5347H82.738L102.904 127.176C103.227 127.982 103.63 128.843 104.114 129.757C104.652 130.671 105.27 131.531 105.969 132.338C106.668 133.091 107.421 133.736 108.228 134.274C109.088 134.758 110.03 135 111.051 135H88.3038C89.6482 134.946 90.6969 134.516 91.4498 133.709C92.2564 132.903 92.6597 131.8 92.6597 130.402C92.6597 129.595 92.4446 128.547 92.0144 127.256C91.638 125.966 91.154 124.648 90.5624 123.304C90.0247 121.905 89.46 120.588 88.8685 119.351C88.3307 118.06 87.9005 117.039 87.5779 116.286H67.573C67.3041 117.039 66.9008 118.06 66.363 119.351C65.8253 120.588 65.2875 121.905 64.7498 123.304C64.212 124.648 63.728 125.966 63.2978 127.256C62.9214 128.493 62.7331 129.515 62.7331 130.321C62.7331 131.827 63.1633 132.983 64.0238 133.79C64.938 134.597 66.1211 135 67.573 135H53.4567ZM68.2183 114.592H86.9325C85.2117 110.72 83.5715 106.794 82.012 102.815C80.4525 98.8353 78.893 94.8559 77.3334 90.8764L68.2183 114.592ZM87.9005 135H88.3038H87.9005ZM53.2147 135H53.4567H53.2147ZM97.5916 78.5347H120.904C119.721 78.5347 118.699 78.8305 117.838 79.4221C117.032 80.0136 116.628 80.9547 116.628 82.2453C116.628 83.1595 116.817 84.0468 117.193 84.9072C117.57 85.7677 118 86.5743 118.484 87.3272L128.97 103.783L140.586 87.2465C141.177 86.4937 141.688 85.6332 142.118 84.6653C142.549 83.6973 142.764 82.7293 142.764 81.7613C142.764 80.632 142.414 79.8254 141.715 79.3414C141.07 78.8036 140.209 78.5347 139.134 78.5347H153.331C152.202 78.5347 151.099 78.8574 150.024 79.5027C149.002 80.0943 148.034 80.8471 147.12 81.7613C146.259 82.6218 145.453 83.5628 144.7 84.5846C143.947 85.6063 143.275 86.5205 142.683 87.3272L131.471 103.702C131.309 103.971 131.148 104.267 130.987 104.589C130.825 104.858 130.691 105.127 130.583 105.396C130.476 105.773 130.395 106.337 130.341 107.09C130.341 107.789 130.341 108.354 130.341 108.784V126.45C130.341 128.708 130.933 130.698 132.116 132.419C133.299 134.14 135.101 135 137.521 135H113.483C115.956 135 117.758 134.14 118.887 132.419C120.016 130.698 120.581 128.708 120.581 126.45V116.608C120.581 114.995 120.554 113.705 120.5 112.737C120.447 111.715 120.285 110.801 120.016 109.994C119.801 109.187 119.452 108.381 118.968 107.574C118.538 106.714 117.919 105.611 117.112 104.267L106.707 87.1659C106.277 86.4668 105.739 85.6332 105.093 84.6653C104.448 83.6435 103.722 82.7024 102.915 81.842C102.109 80.9278 101.248 80.148 100.334 79.5027C99.4738 78.8574 98.5596 78.5347 97.5916 78.5347ZM140.313 135C141.389 135 142.33 134.758 143.136 134.274C143.997 133.736 144.75 133.091 145.395 132.338C146.094 131.585 146.686 130.752 147.169 129.837C147.653 128.923 148.057 128.036 148.379 127.176L166.932 78.5347H169.594L189.76 127.176C190.083 127.982 190.486 128.843 190.97 129.757C191.508 130.671 192.127 131.531 192.826 132.338C193.525 133.091 194.278 133.736 195.084 134.274C195.945 134.758 196.886 135 197.908 135H175.16C176.505 134.946 177.553 134.516 178.306 133.709C179.113 132.903 179.516 131.8 179.516 130.402C179.516 129.595 179.301 128.547 178.871 127.256C178.494 125.966 178.01 124.648 177.419 123.304C176.881 121.905 176.316 120.588 175.725 119.351C175.187 118.06 174.757 117.039 174.434 116.286H154.429C154.16 117.039 153.757 118.06 153.219 119.351C152.682 120.588 152.144 121.905 151.606 123.304C151.068 124.648 150.584 125.966 150.154 127.256C149.778 128.493 149.589 129.515 149.589 130.321C149.589 131.827 150.02 132.983 150.88 133.79C151.794 134.597 152.977 135 154.429 135H140.313ZM155.075 114.592H173.789C172.068 110.72 170.428 106.794 168.868 102.815C167.309 98.8353 165.749 94.8559 164.19 90.8764L155.075 114.592ZM174.757 135H175.16H174.757ZM140.071 135H140.313H140.071ZM195.074 78.5347H214.836C214.89 79.2338 215.105 79.906 215.482 80.5514C215.912 81.1429 216.342 81.7076 216.772 82.2453C221.236 88.1069 225.538 94.0224 229.679 99.9915C233.819 105.907 238.095 111.795 242.504 117.657V87.1659C242.504 84.961 241.94 82.9713 240.81 81.1967C239.681 79.4221 237.88 78.5347 235.406 78.5347H251.055C249.872 78.5347 248.85 78.8036 247.99 79.3414C247.129 79.8254 246.43 80.4707 245.892 81.2773C245.355 82.084 244.951 82.9982 244.682 84.0199C244.413 85.0417 244.279 86.0903 244.279 87.1659V135H241.294L203.866 84.7459V126.369C203.866 127.444 204 128.52 204.269 129.595C204.538 130.617 204.942 131.531 205.479 132.338C206.071 133.145 206.797 133.79 207.657 134.274C208.571 134.758 209.647 135 210.884 135H195.074C196.31 135 197.359 134.758 198.219 134.274C199.08 133.736 199.779 133.064 200.317 132.257C200.908 131.451 201.339 130.537 201.607 129.515C201.876 128.493 202.011 127.444 202.011 126.369V87.1659C202.011 86.0903 201.876 85.0417 201.607 84.0199C201.339 82.9982 200.908 82.084 200.317 81.2773C199.779 80.4707 199.08 79.8254 198.219 79.3414C197.359 78.8036 196.31 78.5347 195.074 78.5347ZM247.099 135C248.175 135 249.116 134.758 249.922 134.274C250.783 133.736 251.536 133.091 252.181 132.338C252.88 131.585 253.472 130.752 253.956 129.837C254.44 128.923 254.843 128.036 255.166 127.176L273.718 78.5347H276.38L296.547 127.176C296.869 127.982 297.273 128.843 297.757 129.757C298.294 130.671 298.913 131.531 299.612 132.338C300.311 133.091 301.064 133.736 301.87 134.274C302.731 134.758 303.672 135 304.694 135H281.946C283.291 134.946 284.339 134.516 285.092 133.709C285.899 132.903 286.302 131.8 286.302 130.402C286.302 129.595 286.087 128.547 285.657 127.256C285.28 125.966 284.796 124.648 284.205 123.304C283.667 121.905 283.102 120.588 282.511 119.351C281.973 118.06 281.543 117.039 281.22 116.286H261.215C260.947 117.039 260.543 118.06 260.005 119.351C259.468 120.588 258.93 121.905 258.392 123.304C257.854 124.648 257.37 125.966 256.94 127.256C256.564 128.493 256.376 129.515 256.376 130.321C256.376 131.827 256.806 132.983 257.666 133.79C258.58 134.597 259.763 135 261.215 135H247.099ZM261.861 114.592H280.575C278.854 110.72 277.214 106.794 275.654 102.815C274.095 98.8353 272.535 94.8559 270.976 90.8764L261.861 114.592ZM281.543 135H281.946H281.543ZM246.857 135H247.099H246.857ZM301.86 78.5347H321.623C321.676 79.2338 321.891 79.906 322.268 80.5514C322.698 81.1429 323.128 81.7076 323.558 82.2453C328.022 88.1069 332.324 94.0224 336.465 99.9915C340.606 105.907 344.881 111.795 349.291 117.657V87.1659C349.291 84.961 348.726 82.9713 347.597 81.1967C346.467 79.4221 344.666 78.5347 342.192 78.5347H357.841C356.658 78.5347 355.636 78.8036 354.776 79.3414C353.915 79.8254 353.216 80.4707 352.678 81.2773C352.141 82.084 351.737 82.9982 351.468 84.0199C351.2 85.0417 351.065 86.0903 351.065 87.1659V135H348.081L310.652 84.7459V126.369C310.652 127.444 310.787 128.52 311.055 129.595C311.324 130.617 311.728 131.531 312.265 132.338C312.857 133.145 313.583 133.79 314.443 134.274C315.358 134.758 316.433 135 317.67 135H301.86C303.097 135 304.145 134.758 305.006 134.274C305.866 133.736 306.565 133.064 307.103 132.257C307.694 131.451 308.125 130.537 308.394 129.515C308.662 128.493 308.797 127.444 308.797 126.369V87.1659C308.797 86.0903 308.662 85.0417 308.394 84.0199C308.125 82.9982 307.694 82.084 307.103 81.2773C306.565 80.4707 305.866 79.8254 305.006 79.3414C304.145 78.8036 303.097 78.5347 301.86 78.5347ZM362.113 126.45V87.1659C362.113 84.9072 361.522 82.9175 360.338 81.1967C359.209 79.4758 357.435 78.5885 355.015 78.5347H384.699C388.732 78.5347 392.577 79.2607 396.234 80.7127C399.891 82.1647 403.091 84.1813 405.833 86.7625C408.63 89.3438 410.835 92.4091 412.448 95.9583C414.061 99.4538 414.868 103.299 414.868 107.493C414.868 111.258 414.169 114.807 412.77 118.141C411.426 121.475 409.544 124.406 407.124 126.934C404.758 129.407 401.935 131.37 398.654 132.822C395.374 134.274 391.825 135 388.006 135H355.015C357.435 134.946 359.209 134.086 360.338 132.419C361.522 130.698 362.113 128.708 362.113 126.45ZM371.954 80.2287V124.03C371.954 127.471 372.976 129.864 375.019 131.209C377.063 132.553 379.671 133.225 382.844 133.225C386.554 133.225 389.781 132.526 392.524 131.128C395.266 129.73 397.525 127.875 399.299 125.562C401.074 123.196 402.392 120.453 403.252 117.334C404.112 114.215 404.543 110.962 404.543 107.574C404.543 103.81 403.924 100.287 402.687 97.0069C401.451 93.6728 399.703 90.7689 397.444 88.2952C395.239 85.8215 392.551 83.8586 389.378 82.4066C386.205 80.9547 382.683 80.2287 378.811 80.2287H371.954ZM407.593 135C408.669 135 409.61 134.758 410.417 134.274C411.277 133.736 412.03 133.091 412.675 132.338C413.374 131.585 413.966 130.752 414.45 129.837C414.934 128.923 415.337 128.036 415.66 127.176L434.213 78.5347H436.875L457.041 127.176C457.364 127.982 457.767 128.843 458.251 129.757C458.789 130.671 459.407 131.531 460.106 132.338C460.805 133.091 461.558 133.736 462.365 134.274C463.225 134.758 464.166 135 465.188 135H442.441C443.785 134.946 444.834 134.516 445.586 133.709C446.393 132.903 446.796 131.8 446.796 130.402C446.796 129.595 446.581 128.547 446.151 127.256C445.775 125.966 445.291 124.648 444.699 123.304C444.161 121.905 443.597 120.588 443.005 119.351C442.467 118.06 442.037 117.039 441.715 116.286H421.71C421.441 117.039 421.038 118.06 420.5 119.351C419.962 120.588 419.424 121.905 418.886 123.304C418.349 124.648 417.865 125.966 417.435 127.256C417.058 128.493 416.87 129.515 416.87 130.321C416.87 131.827 417.3 132.983 418.16 133.79C419.075 134.597 420.258 135 421.71 135H407.593ZM422.355 114.592H441.069C439.348 110.72 437.708 106.794 436.149 102.815C434.589 98.8353 433.03 94.8559 431.47 90.8764L422.355 114.592ZM442.037 135H442.441H442.037ZM407.351 135H407.593H407.351ZM462.354 78.5347H482.117C482.171 79.2338 482.386 79.906 482.762 80.5514C483.192 81.1429 483.623 81.7076 484.053 82.2453C488.516 88.1069 492.818 94.0224 496.959 99.9915C501.1 105.907 505.375 111.795 509.785 117.657V87.1659C509.785 84.961 509.22 82.9713 508.091 81.1967C506.962 79.4221 505.16 78.5347 502.686 78.5347H518.335C517.152 78.5347 516.13 78.8036 515.27 79.3414C514.41 79.8254 513.71 80.4707 513.173 81.2773C512.635 82.084 512.232 82.9982 511.963 84.0199C511.694 85.0417 511.559 86.0903 511.559 87.1659V135H508.575L471.146 84.7459V126.369C471.146 127.444 471.281 128.52 471.55 129.595C471.819 130.617 472.222 131.531 472.76 132.338C473.351 133.145 474.077 133.79 474.938 134.274C475.852 134.758 476.927 135 478.164 135H462.354C463.591 135 464.639 134.758 465.5 134.274C466.36 133.736 467.059 133.064 467.597 132.257C468.189 131.451 468.619 130.537 468.888 129.515C469.157 128.493 469.291 127.444 469.291 126.369V87.1659C469.291 86.0903 469.157 85.0417 468.888 84.0199C468.619 82.9982 468.189 82.084 467.597 81.2773C467.059 80.4707 466.36 79.8254 465.5 79.3414C464.639 78.8036 463.591 78.5347 462.354 78.5347Z" fill="#FDBE6D"/>
</svg>
