<svg width="642" height="70" viewBox="0 0 642 70" fill="none" xmlns="http://www.w3.org/2000/svg">
<path d="M9.3 59.4V10.7C9.3 7.89999 8.56667 5.43333 7.1 3.29999C5.7 1.16666 3.5 0.066661 0.5 -4.76837e-06H37.3C42.3 -4.76837e-06 47.0667 0.899996 51.6 2.7C56.1333 4.5 60.1 7 63.5 10.2C66.9667 13.4 69.7 17.2 71.7 21.6C73.7 25.9333 74.7 30.7 74.7 35.9C74.7 40.5667 73.8333 44.9667 72.1 49.1C70.4333 53.2333 68.1 56.8667 65.1 60C62.1667 63.0667 58.6667 65.5 54.6 67.3C50.5333 69.1 46.1333 70 41.4 70H0.5C3.5 69.9333 5.7 68.8667 7.1 66.8C8.56667 64.6667 9.3 62.2 9.3 59.4ZM21.5 2.1V56.4C21.5 60.6667 22.7667 63.6333 25.3 65.3C27.8333 66.9667 31.0667 67.8 35 67.8C39.6 67.8 43.6 66.9333 47 65.2C50.4 63.4667 53.2 61.1667 55.4 58.3C57.6 55.3667 59.2333 51.9667 60.3 48.1C61.3667 44.2333 61.9 40.2 61.9 36C61.9 31.3333 61.1333 26.9667 59.6 22.9C58.0667 18.7667 55.9 15.1667 53.1 12.1C50.3667 9.03333 47.0333 6.6 43.1 4.8C39.1667 3 34.8 2.1 30 2.1H21.5ZM65.682 70C67.0154 70 68.182 69.7 69.182 69.1C70.2487 68.4333 71.182 67.6333 71.982 66.7C72.8487 65.7667 73.582 64.7333 74.182 63.6C74.782 62.4667 75.282 61.3667 75.682 60.3L98.682 -4.76837e-06H101.982L126.982 60.3C127.382 61.3 127.882 62.3667 128.482 63.5C129.149 64.6333 129.915 65.7 130.782 66.7C131.649 67.6333 132.582 68.4333 133.582 69.1C134.649 69.7 135.815 70 137.082 70H108.882C110.549 69.9333 111.849 69.4 112.782 68.4C113.782 67.4 114.282 66.0333 114.282 64.3C114.282 63.3 114.015 62 113.482 60.4C113.015 58.8 112.415 57.1667 111.682 55.5C111.015 53.7667 110.315 52.1333 109.582 50.6C108.915 49 108.382 47.7333 107.982 46.8H83.182C82.8487 47.7333 82.3487 49 81.682 50.6C81.0154 52.1333 80.3487 53.7667 79.682 55.5C79.0154 57.1667 78.4154 58.8 77.882 60.4C77.4154 61.9333 77.182 63.2 77.182 64.2C77.182 66.0667 77.7154 67.5 78.782 68.5C79.9154 69.5 81.382 70 83.182 70H65.682ZM83.982 44.7H107.182C105.049 39.9 103.015 35.0333 101.082 30.1C99.1487 25.1667 97.2154 20.2333 95.282 15.3L83.982 44.7ZM108.382 70H108.882H108.382ZM65.382 70H65.682H65.382ZM120.396 -4.76837e-06H149.296C147.829 -4.76837e-06 146.563 0.366663 145.496 1.1C144.496 1.83333 143.996 3 143.996 4.6C143.996 5.73333 144.229 6.83333 144.696 7.89999C145.163 8.96666 145.696 9.96666 146.296 10.9L159.296 31.3L173.696 10.8C174.429 9.86667 175.063 8.8 175.596 7.6C176.129 6.4 176.396 5.2 176.396 4C176.396 2.6 175.963 1.59999 175.096 0.999994C174.296 0.333328 173.229 -4.76837e-06 171.896 -4.76837e-06H189.496C188.096 -4.76837e-06 186.729 0.399996 185.396 1.2C184.129 1.93333 182.929 2.86666 181.796 4C180.729 5.06666 179.729 6.23333 178.796 7.5C177.863 8.76667 177.029 9.9 176.296 10.9L162.396 31.2C162.196 31.5333 161.996 31.9 161.796 32.3C161.596 32.6333 161.429 32.9667 161.296 33.3C161.163 33.7667 161.063 34.4667 160.996 35.4C160.996 36.2667 160.996 36.9667 160.996 37.5V59.4C160.996 62.2 161.729 64.6667 163.196 66.8C164.663 68.9333 166.896 70 169.896 70H140.096C143.163 70 145.396 68.9333 146.796 66.8C148.196 64.6667 148.896 62.2 148.896 59.4V47.2C148.896 45.2 148.863 43.6 148.796 42.4C148.729 41.1333 148.529 40 148.196 39C147.929 38 147.496 37 146.896 36C146.363 34.9333 145.596 33.5667 144.596 31.9L131.696 10.7C131.163 9.83333 130.496 8.8 129.696 7.6C128.896 6.33333 127.996 5.16666 126.996 4.1C125.996 2.96666 124.929 2 123.796 1.2C122.729 0.399996 121.596 -4.76837e-06 120.396 -4.76837e-06ZM173.358 70C174.691 70 175.858 69.7 176.858 69.1C177.924 68.4333 178.858 67.6333 179.658 66.7C180.524 65.7667 181.258 64.7333 181.858 63.6C182.458 62.4667 182.958 61.3667 183.358 60.3L206.358 -4.76837e-06H209.658L234.658 60.3C235.058 61.3 235.558 62.3667 236.158 63.5C236.824 64.6333 237.591 65.7 238.458 66.7C239.324 67.6333 240.258 68.4333 241.258 69.1C242.324 69.7 243.491 70 244.758 70H216.558C218.224 69.9333 219.524 69.4 220.458 68.4C221.458 67.4 221.958 66.0333 221.958 64.3C221.958 63.3 221.691 62 221.158 60.4C220.691 58.8 220.091 57.1667 219.358 55.5C218.691 53.7667 217.991 52.1333 217.258 50.6C216.591 49 216.058 47.7333 215.658 46.8H190.858C190.524 47.7333 190.024 49 189.358 50.6C188.691 52.1333 188.024 53.7667 187.358 55.5C186.691 57.1667 186.091 58.8 185.558 60.4C185.091 61.9333 184.858 63.2 184.858 64.2C184.858 66.0667 185.391 67.5 186.458 68.5C187.591 69.5 189.058 70 190.858 70H173.358ZM191.658 44.7H214.858C212.724 39.9 210.691 35.0333 208.758 30.1C206.824 25.1667 204.891 20.2333 202.958 15.3L191.658 44.7ZM216.058 70H216.558H216.058ZM173.058 70H173.358H173.058ZM241.245 -4.76837e-06H265.745C265.811 0.866663 266.078 1.7 266.545 2.5C267.078 3.23333 267.611 3.93333 268.145 4.6C273.678 11.8667 279.011 19.2 284.145 26.6C289.278 33.9333 294.578 41.2333 300.045 48.5V10.7C300.045 7.96666 299.345 5.5 297.945 3.29999C296.545 1.09999 294.311 -4.76837e-06 291.245 -4.76837e-06H310.645C309.178 -4.76837e-06 307.911 0.333328 306.845 0.999994C305.778 1.59999 304.911 2.4 304.245 3.4C303.578 4.4 303.078 5.53333 302.745 6.8C302.411 8.06666 302.245 9.36666 302.245 10.7V70H298.545L252.145 7.7V59.3C252.145 60.6333 252.311 61.9667 252.645 63.3C252.978 64.5667 253.478 65.7 254.145 66.7C254.878 67.7 255.778 68.5 256.845 69.1C257.978 69.7 259.311 70 260.845 70H241.245C242.778 70 244.078 69.7 245.145 69.1C246.211 68.4333 247.078 67.6 247.745 66.6C248.478 65.6 249.011 64.4667 249.345 63.2C249.678 61.9333 249.845 60.6333 249.845 59.3V10.7C249.845 9.36666 249.678 8.06666 249.345 6.8C249.011 5.53333 248.478 4.4 247.745 3.4C247.078 2.4 246.211 1.59999 245.145 0.999994C244.078 0.333328 242.778 -4.76837e-06 241.245 -4.76837e-06ZM305.741 70C307.074 70 308.241 69.7 309.241 69.1C310.307 68.4333 311.241 67.6333 312.041 66.7C312.907 65.7667 313.641 64.7333 314.241 63.6C314.841 62.4667 315.341 61.3667 315.741 60.3L338.741 -4.76837e-06H342.041L367.041 60.3C367.441 61.3 367.941 62.3667 368.541 63.5C369.207 64.6333 369.974 65.7 370.841 66.7C371.707 67.6333 372.641 68.4333 373.641 69.1C374.707 69.7 375.874 70 377.141 70H348.941C350.607 69.9333 351.907 69.4 352.841 68.4C353.841 67.4 354.341 66.0333 354.341 64.3C354.341 63.3 354.074 62 353.541 60.4C353.074 58.8 352.474 57.1667 351.741 55.5C351.074 53.7667 350.374 52.1333 349.641 50.6C348.974 49 348.441 47.7333 348.041 46.8H323.241C322.907 47.7333 322.407 49 321.741 50.6C321.074 52.1333 320.407 53.7667 319.741 55.5C319.074 57.1667 318.474 58.8 317.941 60.4C317.474 61.9333 317.241 63.2 317.241 64.2C317.241 66.0667 317.774 67.5 318.841 68.5C319.974 69.5 321.441 70 323.241 70H305.741ZM324.041 44.7H347.241C345.107 39.9 343.074 35.0333 341.141 30.1C339.207 25.1667 337.274 20.2333 335.341 15.3L324.041 44.7ZM348.441 70H348.941H348.441ZM305.441 70H305.741H305.441ZM373.627 -4.76837e-06H398.127C398.194 0.866663 398.461 1.7 398.927 2.5C399.461 3.23333 399.994 3.93333 400.527 4.6C406.061 11.8667 411.394 19.2 416.527 26.6C421.661 33.9333 426.961 41.2333 432.427 48.5V10.7C432.427 7.96666 431.727 5.5 430.327 3.29999C428.927 1.09999 426.694 -4.76837e-06 423.627 -4.76837e-06H443.027C441.561 -4.76837e-06 440.294 0.333328 439.227 0.999994C438.161 1.59999 437.294 2.4 436.627 3.4C435.961 4.4 435.461 5.53333 435.127 6.8C434.794 8.06666 434.627 9.36666 434.627 10.7V70H430.927L384.527 7.7V59.3C384.527 60.6333 384.694 61.9667 385.027 63.3C385.361 64.5667 385.861 65.7 386.527 66.7C387.261 67.7 388.161 68.5 389.227 69.1C390.361 69.7 391.694 70 393.227 70H373.627C375.161 70 376.461 69.7 377.527 69.1C378.594 68.4333 379.461 67.6 380.127 66.6C380.861 65.6 381.394 64.4667 381.727 63.2C382.061 61.9333 382.227 60.6333 382.227 59.3V10.7C382.227 9.36666 382.061 8.06666 381.727 6.8C381.394 5.53333 380.861 4.4 380.127 3.4C379.461 2.4 378.594 1.59999 377.527 0.999994C376.461 0.333328 375.161 -4.76837e-06 373.627 -4.76837e-06ZM448.323 59.4V10.7C448.323 7.89999 447.59 5.43333 446.123 3.29999C444.723 1.16666 442.523 0.066661 439.523 -4.76837e-06H476.323C481.323 -4.76837e-06 486.09 0.899996 490.623 2.7C495.157 4.5 499.123 7 502.523 10.2C505.99 13.4 508.723 17.2 510.723 21.6C512.723 25.9333 513.723 30.7 513.723 35.9C513.723 40.5667 512.857 44.9667 511.123 49.1C509.457 53.2333 507.123 56.8667 504.123 60C501.19 63.0667 497.69 65.5 493.623 67.3C489.557 69.1 485.157 70 480.423 70H439.523C442.523 69.9333 444.723 68.8667 446.123 66.8C447.59 64.6667 448.323 62.2 448.323 59.4ZM460.523 2.1V56.4C460.523 60.6667 461.79 63.6333 464.323 65.3C466.857 66.9667 470.09 67.8 474.023 67.8C478.623 67.8 482.623 66.9333 486.023 65.2C489.423 63.4667 492.223 61.1667 494.423 58.3C496.623 55.3667 498.257 51.9667 499.323 48.1C500.39 44.2333 500.923 40.2 500.923 36C500.923 31.3333 500.157 26.9667 498.623 22.9C497.09 18.7667 494.923 15.1667 492.123 12.1C489.39 9.03333 486.057 6.6 482.123 4.8C478.19 3 473.823 2.1 469.023 2.1H460.523ZM504.705 70C506.039 70 507.205 69.7 508.205 69.1C509.272 68.4333 510.205 67.6333 511.005 66.7C511.872 65.7667 512.605 64.7333 513.205 63.6C513.805 62.4667 514.305 61.3667 514.705 60.3L537.705 -4.76837e-06H541.005L566.005 60.3C566.405 61.3 566.905 62.3667 567.505 63.5C568.172 64.6333 568.939 65.7 569.805 66.7C570.672 67.6333 571.605 68.4333 572.605 69.1C573.672 69.7 574.839 70 576.105 70H547.905C549.572 69.9333 550.872 69.4 551.805 68.4C552.805 67.4 553.305 66.0333 553.305 64.3C553.305 63.3 553.039 62 552.505 60.4C552.039 58.8 551.439 57.1667 550.705 55.5C550.039 53.7667 549.339 52.1333 548.605 50.6C547.939 49 547.405 47.7333 547.005 46.8H522.205C521.872 47.7333 521.372 49 520.705 50.6C520.039 52.1333 519.372 53.7667 518.705 55.5C518.039 57.1667 517.439 58.8 516.905 60.4C516.439 61.9333 516.205 63.2 516.205 64.2C516.205 66.0667 516.739 67.5 517.805 68.5C518.939 69.5 520.405 70 522.205 70H504.705ZM523.005 44.7H546.205C544.072 39.9 542.039 35.0333 540.105 30.1C538.172 25.1667 536.239 20.2333 534.305 15.3L523.005 44.7ZM547.405 70H547.905H547.405ZM504.405 70H504.705H504.405ZM572.592 -4.76837e-06H597.092C597.159 0.866663 597.426 1.7 597.892 2.5C598.426 3.23333 598.959 3.93333 599.492 4.6C605.026 11.8667 610.359 19.2 615.492 26.6C620.626 33.9333 625.926 41.2333 631.392 48.5V10.7C631.392 7.96666 630.692 5.5 629.292 3.29999C627.892 1.09999 625.659 -4.76837e-06 622.592 -4.76837e-06H641.992C640.526 -4.76837e-06 639.259 0.333328 638.192 0.999994C637.126 1.59999 636.259 2.4 635.592 3.4C634.926 4.4 634.426 5.53333 634.092 6.8C633.759 8.06666 633.592 9.36666 633.592 10.7V70H629.892L583.492 7.7V59.3C583.492 60.6333 583.659 61.9667 583.992 63.3C584.326 64.5667 584.826 65.7 585.492 66.7C586.226 67.7 587.126 68.5 588.192 69.1C589.326 69.7 590.659 70 592.192 70H572.592C574.126 70 575.426 69.7 576.492 69.1C577.559 68.4333 578.426 67.6 579.092 66.6C579.826 65.6 580.359 64.4667 580.692 63.2C581.026 61.9333 581.192 60.6333 581.192 59.3V10.7C581.192 9.36666 581.026 8.06666 580.692 6.8C580.359 5.53333 579.826 4.4 579.092 3.4C578.426 2.4 577.559 1.59999 576.492 0.999994C575.426 0.333328 574.126 -4.76837e-06 572.592 -4.76837e-06Z" fill="#FDBE6D"/>
</svg>
